<?xml version="1.0" encoding="UTF-8"?>
<svg id="Layer_1" data-name="Layer 1" xmlns="http://www.w3.org/2000/svg" viewBox="0 0 219.9 351.32">
  <path d="M26.79,1.08c38.18,1.37,78.82-2.71,116.72-.3,48.44,3.07,87.12,44.1,73.7,93.67-6.16,22.74-36.48,42.92-36.25,62.62.13,11.72,19.38,31.62,25.78,43.13,25.1,45.13,12.43,99.27-29.06,129.31C108.74,379.39,7.13,339.49,0,252.94L.05,28.29C1.95,13.78,12.46,3.48,26.79,1.08ZM49.02,47.74v209.15c0,9.17,13.33,27.6,20.51,33.42,42.09,34.16,105.97,3.13,100.42-52.38-2.45-24.51-31.91-41.67-36.72-68.15-3.77-20.79,1.34-37.43,12.92-54.47,10.66-15.68,32.87-30.53,20.84-52.13-3.45-6.2-15.44-15.44-22.52-15.44H49.02Z"/>
</svg>