<svg width="101" height="102" viewBox="0 0 101 102" fill="none" xmlns="http://www.w3.org/2000/svg">
<g style="mix-blend-mode:screen" filter="url(#filter0_d_308_41)">
<path d="M99.0768 47.7483C98.6104 34.9772 93.2285 22.88 84.0549 13.9826C74.8813 5.08531 62.6252 0.0757478 49.8458 1.36706e-05H49.6045C40.9987 -0.00637695 32.5395 2.22792 25.0592 6.48304C17.5789 10.7382 11.3353 16.8675 6.94284 24.268C2.55034 31.6684 0.160265 40.085 0.00778309 48.6895C-0.144699 57.294 1.94567 65.7899 6.0732 73.3414L1.69041 99.5677C1.68327 99.6215 1.68767 99.6762 1.70332 99.7282C1.71898 99.7802 1.74552 99.8282 1.78118 99.8691C1.81685 99.91 1.86082 99.9428 1.91017 99.9654C1.95951 99.988 2.0131 99.9998 2.06737 100H2.14276L28.0826 94.23C34.7848 97.4478 42.1247 99.1175 49.5593 99.1154C50.0318 99.1154 50.5042 99.1154 50.9767 99.1154C57.5166 98.9288 63.9548 97.4488 69.9197 94.7608C75.8846 92.0728 81.2581 88.2301 85.73 83.4544C90.202 78.6787 93.6838 73.0647 95.9746 66.9362C98.2653 60.8078 99.3197 54.2864 99.0768 47.7483ZM50.7304 90.4956C50.3384 90.4956 49.9463 90.4956 49.5593 90.4956C42.9884 90.5037 36.512 88.9315 30.6761 85.9117L29.3492 85.2181L11.7578 89.3747L15.0046 71.5772L14.2507 70.3006C10.6499 64.1613 8.71036 57.1899 8.62319 50.0731C8.53602 42.9563 10.3042 35.9396 13.7536 29.714C17.2029 23.4883 22.2145 18.2686 28.2947 14.5689C34.3749 10.8692 41.314 8.81713 48.4284 8.61481C48.8238 8.61481 49.2209 8.61481 49.6196 8.61481C60.3612 8.64664 70.6603 12.8969 78.298 20.4499C85.9356 28.0029 90.3005 38.254 90.4521 48.9945C90.6037 59.735 86.5299 70.1052 79.1085 77.8708C71.687 85.6363 61.512 90.1756 50.7756 90.5107L50.7304 90.4956Z" fill="#0000FF"/>
<path d="M32.3286 25.6335C31.7161 25.6454 31.1123 25.7802 30.5529 26.0297C29.9934 26.2792 29.4897 26.6384 29.0716 27.086C27.8905 28.2973 24.5883 31.2125 24.3973 37.3343C24.2063 43.4562 28.4836 49.5127 29.0817 50.3621C29.6798 51.2115 37.2592 64.4352 49.7441 69.7981C57.0823 72.9596 60.299 73.5024 62.3848 73.5024C63.2443 73.5024 63.8927 73.4119 64.5712 73.3717C66.8581 73.231 72.0199 70.5872 73.1458 67.7123C74.2717 64.8373 74.347 62.3243 74.0505 61.8217C73.754 61.319 72.9397 60.9572 71.7134 60.3138C70.487 59.6705 64.4707 56.4537 63.3398 56.0014C62.9205 55.8061 62.4692 55.6886 62.0079 55.6546C61.7074 55.6703 61.4154 55.7591 61.157 55.9133C60.8986 56.0674 60.6817 56.2823 60.5252 56.5392C59.52 57.7907 57.213 60.5098 56.4389 61.2939C56.2698 61.4887 56.0616 61.6458 55.8278 61.7549C55.594 61.864 55.3398 61.9227 55.0819 61.9272C54.6064 61.9064 54.1414 61.7811 53.7198 61.5603C50.0754 60.0126 46.7529 57.7964 43.9239 55.0263C41.2804 52.4211 39.0378 49.4383 37.2692 46.1753C36.5857 44.9087 37.2692 44.2553 37.8925 43.6622C38.5157 43.0691 39.1842 42.2499 39.8276 41.5412C40.3555 40.9358 40.7954 40.259 41.1343 39.5307C41.3098 39.1927 41.3984 38.8164 41.3923 38.4356C41.3861 38.0549 41.2854 37.6816 41.0992 37.3494C40.8026 36.7161 38.5861 30.4887 37.5457 27.9907C36.7013 25.8546 35.6961 25.7843 34.8165 25.7189C34.0927 25.6687 33.2634 25.6435 32.4341 25.6184H32.3286" fill="#0000FF"/>
</g>
<defs>
<filter id="filter0_d_308_41" x="0" y="0" width="100.611" height="101.5" filterUnits="userSpaceOnUse" color-interpolation-filters="sRGB">
<feFlood flood-opacity="0" result="BackgroundImageFix"/>
<feColorMatrix in="SourceAlpha" type="matrix" values="0 0 0 0 0 0 0 0 0 0 0 0 0 0 0 0 0 0 127 0" result="hardAlpha"/>
<feOffset dx="1.5" dy="1.5"/>
<feComposite in2="hardAlpha" operator="out"/>
<feColorMatrix type="matrix" values="0 0 0 0 0.0666667 0 0 0 0 0.0666667 0 0 0 0 0.0666667 0 0 0 1 0"/>
<feBlend mode="normal" in2="BackgroundImageFix" result="effect1_dropShadow_308_41"/>
<feBlend mode="normal" in="SourceGraphic" in2="effect1_dropShadow_308_41" result="shape"/>
</filter>
</defs>
</svg>
