<?xml version="1.0" encoding="UTF-8"?>
<svg id="Layer_1" data-name="Layer 1" xmlns="http://www.w3.org/2000/svg" viewBox="0 0 305.232 402.411">
  <path d="m195.674,38.901c-.22,12.598-2.255,25.021-3.807,37.485-2.117,17.014-4.228,34.038-6.893,50.97-.865,5.494-.084,8.683,4.864,12.041,6.955,4.72,8.522,12.705,8.072,20.736-.4,7.14-1.336,14.258-2.275,21.354-.357,2.701.723,3.376,3.084,3.706,20.569,2.88,39.702,9.805,57.151,21.066,22.978,14.828,39.78,34.509,46.838,61.482,2.996,11.449,3.532,23.075.473,34.581-3.665,13.785-5.714,27.858-8.197,41.86-2.049,11.556-4.926,22.803-12.843,32.038-7.533,8.787-17.392,13.978-27.784,18.505-12.723,5.543-26.083,7.788-39.8,7.683-16.965-.129-33.221-4.068-49.076-10.035-17.782-6.692-34.436-15.801-51.709-23.576-2.789-1.256-5.698-2.278-8.623-3.178-.711-.219-1.631-.371-2.614-.032-3.617,1.247-7.4.792-11.134.651-.688-.026-1.985-.315-1.369-1.119,2.056-2.682-1.027-.504-1.004-1.153-1.841-.02-3.515.043-4.989,1.631-1.063,1.145-3.032,1.515-4.441.829-2.23-1.086-4.209-.298-6.237.173-11.948,2.772-23.473,8.083-36.037,7.2-9.669-.68-19.028-2.866-25.078-11.716-3.053-4.466-3.689-9.626-3.975-14.77-.692-12.472-3.604-24.433-7.116-36.374-2.861-9.727.052-19.157,3.784-28.18,7.172-17.343,18.664-31.633,32.316-44.228,22.443-20.705,48.612-35.132,77.348-45.076,1.898-.657,2.457-1.399,2.377-3.501-.496-13.134-1.529-26.282.189-39.407,1.42-10.845,7.959-17.767,18.63-19.602,1.835-.316,2.299-.769,1.545-2.698-1.872-4.785-4.123-9.488-4.314-14.782-.148-4.1.584-7.919,3.004-11.364,3.47-4.939,3.492-10.122-.09-14.865-5.198-6.883-5.557-13.797-1.27-21.137,3.518-6.024,2.257-12.21.532-18.397-2.522-9.043-5.914-17.866-7.035-27.262-.265-2.219-.396-4.513-.149-6.723.839-7.508,5.022-12.106,12.558-13.058,12.759-1.613,25.321-.341,37.224,4.679,12.264,5.172,16.936,15.517,17.852,28.065.133,1.823.018,3.665.018,5.498Zm16.764,310.383c1.416,0,2.836.062,4.248-.017,1.493-.083,2.982-.275,4.467-.464,21.909-2.788,40.081-12.408,53.587-30.03,8.286-10.812,12.411-23.165,10.979-36.914-1.987-19.075-11.473-34.364-25.023-47.31-17.18-16.414-37.98-25.747-61.102-30.241-5.509-1.071-5.426-.95-5.595,4.752-.067,2.252.369,3.233,2.857,3.719,15.386,3.009,30.092,7.938,43.164,16.848,11.093,7.561,20.333,16.817,24.366,30.063,4.292,14.098-2.4,23.125-17.07,23.62-8.897.301-17.601-1.225-26.286-2.72-20.814-3.583-41.463-8.184-62.554-10.03-12.729-1.114-25.458-1.343-38.053,1.217-20.263,4.119-38.864,12.519-56.922,22.326-7.585,4.119-14.875,8.939-23.375,11.114-7.601,1.945-12.264-2.794-10.422-10.442,1.906-7.911,6.386-14.447,11.419-20.569,19.952-24.264,45.018-41.57,73.977-53.295,3.976-1.61,4.84-3.346,4.038-7.186-.423-2.024-.771-2.497-2.729-1.774-10.003,3.694-19.783,7.876-29.194,12.904-19.719,10.535-37.522,23.537-51.849,40.871-8.445,10.218-15.555,21.22-18.105,34.567-1.985,10.386,4.785,18.763,15.335,18.956,3.098.057,6.147-.401,9.174-.993,10.983-2.148,21.332-6.343,31.879-9.897,7.2-2.426,14.457-4.382,22.182-4.051,10.575.452,20.181,4.153,29.407,8.859,15.938,8.13,31.746,16.517,47.577,24.856,12.426,6.546,25.231,11.691,39.625,11.261Zm-63.884-202.191c-2.33,0-4.679-.197-6.985.038-6.375.65-7.259,1.595-7.913,7.959-.922,8.971-.474,17.954-.157,26.935.635,17.988,2.431,35.841,6.012,53.502.362,1.785,1.03,2.104,2.663,1.856,5.77-.879,11.42-.225,17.006,1.427,4.708,1.392,9.522,2.239,14.408,2.87,2.99.386,3.384-.542,3.373-3.195-.1-25.39.379-50.749,3.903-75.966,1.259-9.007-.562-11.292-9.253-13.348-7.584-1.794-15.326-1.954-23.057-2.077Zm8.686-135.186c-1.264.215-3.367-.641-3.942,1.283-.649,2.174,1.747,2.282,2.981,2.972,6.028,3.368,12.035,6.721,16.603,12.105,3.415,4.025,5.315,8.767,6.834,13.72.354,1.155.88,2.317,2.326,2.164,1.4-.148,1.776-1.304,1.906-2.548.146-1.402.456-2.8.469-4.201.124-13.707-12.347-25.476-27.177-25.494Zm-3.52,85.547c-.054,4.895,3.686,8.934,8.389,9.062,5.274.144,9.894-3.954,9.918-8.798.025-5.021-3.811-9.178-8.545-9.261-5.167-.091-9.709,4.095-9.762,8.997Zm1.31-39.657c-.095,5.06,3.604,8.784,8.746,8.805,4.897.02,8.806-3.995,8.917-9.159.106-4.975-3.548-8.685-8.738-8.87-5.104-.182-8.82,3.659-8.924,9.225Zm87.327,203.633c3.487.465,2.996-2.192,2.682-4.196-1.286-8.221-6.323-13.429-13.821-16.492-1.144-.467-2.48-.982-3.36.411-.789,1.251-.109,2.329.678,3.39,3.852,5.194,8.041,10.158,11.11,15.893.621,1.161,1.542,1.052,2.711.993Zm-159.259.213c-.17-.937-.668-1.462-1.72-1.121-4.803,1.556-9.698,2.884-14.375,4.755-4.749,1.899-8.606,5.005-10.192,10.218-.231.761-.332,1.491.381,2.038.787.604,1.477.073,2.001-.399,3.85-3.468,8.588-5.254,13.272-7.18,3.448-1.417,6.943-2.823,9.385-5.875.571-.714,1.178-1.406,1.248-2.436Zm129.055-31.659c-.608.117-1.898.161-3.017.622-2.289.943-2.59,2.61-.753,4.212,3.159,2.755,6.852,4.304,11.15,4.158,1.278-.044,2.209-.461,2.805-1.662.627-1.263.121-2.257-.606-3.198-2.259-2.923-5.372-4.015-9.579-4.132Z"/>
  <path d="m149.051,275.789c10.434.631,25.124,1.63,39.258,6.274,3.643,1.197,7.132,2.786,10.2,5.158,4.573,3.536,6.18,8.554,3.176,13.442-6.226,10.129-14.208,18.541-26.263,21.632-7.62,1.954-14.705-.362-21.309-4.027-9.809-5.445-19.32-11.414-29.94-15.308-9.753-3.576-19.644-6.173-30.117-6.19-1.999-.003-4.52.236-5.396-2.168-.905-2.484.544-4.567,2.314-6.181,5.729-5.221,12.932-7.372,20.188-9.255,11.015-2.858,22.231-4.088,37.889-3.378Zm20.047,10.923c-2.193-.051-4.302.316-6.274,1.307-.614.309-1.162.743-1.076,1.52.078.712.471,1.192,1.245,1.344,4.232.831,8.457,1.697,12.69,2.519.792.154,1.732.424,2.209-.548.422-.861-.095-1.635-.567-2.308-2-2.844-4.903-3.805-8.227-3.833Zm-19.57,6.013c.672-.074,1.282-.039,1.82-.219,1.943-.649,4.643-1.134,4.131-3.744-.468-2.385-3.007-1.662-4.85-1.498-2.219.198-4.419.806-6.662.09-.415-.132-1.046-.115-1.373.119-.639.456-.148,1.095.104,1.555,1.496,2.722,4.103,3.401,6.829,3.697Z"/>
  <path d="m207.772,341.553c-4.284-.324-8.36-.592-12.173-2.254-5.795-2.526-7.467-6.786-4.949-12.582,1.61-3.705,3.951-6.945,6.579-9.962,4.61-5.292,8.635-11.022,12.214-17.017,4.899-8.207,12.033-11.347,21.335-10.936,9.572.423,18.959,1.454,27.29,6.636,7.781,4.84,9.349,11.776,4.617,19.67-6.696,11.168-17.213,17.329-29,21.675-8.412,3.102-17.15,4.645-25.912,4.77Zm46.279-31.101c.049-4.609-2.357-7.681-6.649-8.928-2.6-.755-5.487-.46-7.824-2.238-.484-.368-1.322-.312-1.874.181-.634.565-.625,1.282-.377,2.066,1.067,3.38,3.936,4.634,6.884,5.56,2.642.83,4.244,2.339,5.009,4.993.372,1.29.177,3.374,2.396,3.184,2.029-.174,1.741-2.15,2.209-3.48.189-.538.195-1.141.226-1.338Z"/>
  <path d="m158.469,205.115c-.248-8.929,1.069-18.505,1.812-28.121.458-5.937-.085-6.469-5.782-7.843-3.728-.899-7.517-1.42-11.348-1.565-2.418-.092-4.358-.88-4.586-3.566-.21-2.476,1.266-3.71,3.616-4.272,6.095-1.457,12.216-1.714,18.251-.023,7.666,2.148,11.91,8.382,10.938,16.255-2.122,17.183-3.755,34.394-3.999,51.719-.032,2.299-1.247,3.854-3.643,3.919-2.496.068-3.721-1.44-4.027-3.85-.923-7.274-1.33-14.575-1.232-22.653Z"/>
</svg>