<?xml version="1.0" encoding="UTF-8"?>
<svg id="Layer_1" data-name="Layer 1" xmlns="http://www.w3.org/2000/svg" viewBox="0 0 316.411 258.428">
  <path fill="#FFFFFF" d="m192.419,82.246c-5.703-8.189-14.384-13.238-21.297-20.154-.883-.884-2.278-1.53-1.976.786.629,4.822-1.777,2.202-3.115,1.211-8.687-6.438-14.32-15.183-18.667-24.907-.47-1.051-.397-2.997-2.198-2.718-.406.063-.612,2.042-.74,3.159-.534,4.659-1.682,9.169-3.204,13.587-.308.895-.71,2.224-1.362,2.432-1.095.349-1.502-1.078-2.036-1.85-3.883-5.622-7.68-11.297-10.363-17.631-.306-.723-.924-1.315-1.397-1.967-.404.682-.935,1.32-1.191,2.054-2.463,7.037-2.969,14.292-2.489,21.687.099,1.525.913,3.981-.886,4.464-2.037.547-2.812-1.951-3.607-3.488-3.73-7.21-3.687-7.233-11.814-6.427-9.324.924-9.219.909-7.936,9.85.567,3.946.656,7.964.87,11.954.06,1.119.423,2.791-.705,3.199-1.321.477-1.608-1.299-2.203-2.164-2.85-4.144-5.992-8.002-10.097-10.984-2.174-1.579-4.504-2.822-7.122-3.522-7.529-2.014-9.411-.872-10.585,6.666-2.077,13.339-5.085,26.487-8.047,39.645-.215.957-.531,2.517-1.07,2.643-1.092.255-1.362-1.135-1.7-2.009-.899-2.325-2.303-1.772-3.969-.899-12.128,6.355-23.797,13.412-34.136,22.467-3.85,3.372-3.665,3.816,1.222,5.394,1.326.428,3.347.11,3.605,1.838.082.552-1.951,1.49-3.082,2.139-4.302,2.469-7.05,6.542-10.418,9.975-.441.449-1.229,1.172-1.524,1.038-.949-.43-.492-1.375-.291-2.12.26-.963.475-1.974.943-2.838,1.842-3.401,2.261-5.902-2.917-5.933-2.708-.016-2.268-1.667-1.372-3.407,3.03-5.885,7.45-10.591,12.437-14.831,9.446-8.031,20.032-14.355,30.804-20.362,2.829-1.578,4.644-3.523,5.51-6.626,3.193-11.429,4.887-23.128,6.277-34.868.562-4.75-2.119-9.014-2.932-13.586-.204-1.147-.491-2.28-.719-3.423-2.05-10.282,3.904-15.475,14.085-12.118,6.873,2.266,12.136,6.953,16.602,12.416,2.093,2.56,4.221,3.206,7.325,2.794,5.609-.743,11.259-1.239,16.906-1.61,2.441-.16,3.534-.973,3.708-3.524.956-14.083,7.651-26.045,14.307-38.001.378-.679,1.146-1.743,1.58-1.673,1.264.202.981,1.531,1.035,2.449.46,7.833,1.416,15.594,3.466,23.18.325,1.205.062,3.244,1.402,3.419,1.78.233,1.408-1.95,1.773-3.04,1.08-3.221,3.013-5.92,4.742-8.761,1.411-2.319,2.258-1.87,3.16.362,1.81,4.475,3.794,8.88,5.579,13.365,1.211,3.044,2.656,3.804,5.403,1.44,3.783-3.253,7.916-6.085,10.867-10.243,4.186-5.896,7.75-7.016,14.619-4.109,3.282,1.389,5.932,1.597,9.316-.04,6.382-3.088,13.334-2.289,20.152-1.521,12.294,1.385,24.182,4.699,36.096,7.822,2.928.767,4.378.403,5.823-2.504,3.535-7.11,10.86-8.342,17.106-3.474,5.034,3.924,8.414,9.035,10.675,14.802,3.033,7.737,8.195,12.434,16.322,14.659,7.29,1.996,13.106,6.343,16.102,13.813,2.403,5.992,1.71,10.528-3.226,14.841-2.745,2.398-5.654,4.846-8.913,6.359-4.479,2.079-5.636,5.505-6.072,9.884-.874,8.771-1.872,17.533-3.062,26.266-.815,5.98-2.619,11.714-6.065,16.76-1.134,1.661-1.493,3.242-.99,5.15.382,1.445.618,2.932.864,4.409,1.922,11.538,1.571,12.541-8.627,18.362-3.247,1.854-4.634,4.237-5.213,7.844-1.174,7.32-2.616,14.637-11.729,16.565-3.039.643-.461,2.534-.075,3.329,6.998,14.404,9.111,29.507,6.53,45.237-.697,4.248-2.117,8.383-3.296,12.544-.199.701-.861,1.271-1.309,1.902-.368-.725-.921-1.414-1.074-2.182-1.304-6.542-2.607-13.082-5.799-19.041-.766-1.43-1.368-3.915-2.844-3.71-1.822.253-1.058,2.747-1.193,4.232-.635,7.005-3.239,13.22-7.199,18.93-.547.789-1.276,1.963-1.987,2.013-1.164.083-1.191-1.36-1.456-2.278-1.89-6.559-3.782-13.117-5.599-19.696-.251-.908-.354-2.671-.074-2.771,1.262-.451,2.149.67,2.802,1.549,1.481,1.994,2.798,4.113,4.131,6.214.438.69.737,1.826,1.619,1.551.55-.171,1.023-1.306,1.132-2.065,1.011-7.055.827-13.959-2.881-20.361-2.004-3.46-3.979-6.937-5.936-10.423-.382-.679-1.233-1.502-.487-2.204.769-.725,1.498.202,2.064.696,7.397,6.46,15.142,12.576,20.65,20.912.487.737.588,2.156,1.934,1.819.21-.053.178-1.507.082-2.292-2.123-17.282-8.102-32.31-24.369-41.214-4.086-2.237-.685-3.902.725-4.212,5.294-1.163,4.964-5.007,5.574-9.055,1.817-12.053-4.273-21.532-9.4-31.398-.98-1.885-2.278-1.864-4.132-1.508-2.934.563-5.965.839-8.858-.375-1.192-.5-2.919-.897-2.673-2.478.2-1.29,1.932-1.057,2.979-1.178,6.304-.729,12.013-2.696,16.461-7.458.659-.705,1.73-1.692,1.596-2.337-.32-1.541-1.91-.907-2.944-.878-7.141.197-13.896-1.282-20.275-4.47-1.491-.745-3.403-1.636-3.345-3.351.061-1.803,2.099-.864,3.258-1.124,1.728-.388,1.117-1.312.48-2.093-7.111-8.73-13.252-18.354-22.789-24.84-.542-.578-1.093-1.164-1.644-1.75Zm85.917,66.779c-2.434-17.174-7.911-33.363-17.642-47.76-12.149-17.975-26.262-34.376-42.38-48.964-10.895-9.861-22.493-18.74-35.86-25.112-3.12-1.487-5.371-1.753-7.52,1.671-2.124,3.383-5.405,5.853-8.528,8.351-7.087,5.669-7.071,7.237.262,12.959.786.613,1.642,1.136,2.459,1.711,21.417,15.068,39.912,33.116,55.347,54.285,5.348,7.335,7.3,7.995,16.31,5.907,2.818-.653,5.294-1.992,7.741-3.389,2.162-1.234,4.163-2.746,6.273-4.074.656-.413,1.444-1.151,2.223-.478.794.686.105,1.556-.165,2.281-3.03,8.148-6.166,16.297-13.345,21.84-2.679,2.069-2.922,3.863-1.283,6.7,4.586,7.938,8.219,16.344,11.541,24.881.596,1.533,1.944,3.429.964,4.722-2.723,3.594-.006,5.883,1.594,8.364,1.22,1.892,2.337,5.019,4.713,4.635,2.874-.464,2.826-4.051,2.9-6.284.268-8.091,4.017-13.485,11.37-16.553,2.558-1.067,3.382-3.024,3.026-5.693Zm5.273-22.014c2.931-12.526,3.063-24.481,3.108-36.382.03-7.909,1.906-13.845,10.186-16.747,3.592-1.259,8.488-3.597,8.122-7.727-.363-4.105-5.135-6.102-9.071-7.742-8.753-3.647-17.477-7.364-26.197-11.091-1.128-.482-3.137-.587-2.797-2.173.31-1.444,2.256-1.164,3.513-1.091,4.611.267,4.537-1.703,2.792-5.055-1.85-3.554-3.666-7.087-6.189-10.236-1.66-2.072-2.687-2.434-4.322.228-4.443,7.231-6.812,7.885-14.852,5.883-13.7-3.412-27.22-7.866-41.573-7.816-.935.003-2.342-.455-2.667.578-.323,1.025,1.073,1.477,1.849,2.006,7.603,5.171,14.554,11.141,21.176,17.485,19.446,18.63,37.267,38.582,49.631,62.791,2.685,5.257,4.665,10.874,7.293,17.091Z"/>
  <path fill="#FFFFFF" d="m192.419,82.246c.551.586,1.103,1.172,1.644,1.75,5.182,5.728,6.933,12.776,7.353,20.198.272,4.814.066,9.659-.052,14.487-.035,1.418.47,3.395-1.187,4.041-1.845.719-3.026-1.043-4.114-2.221-2.711-2.935-5.596-5.779-7.855-9.044-2.876-4.157-6.585-5.254-11.235-4.424-.82.146-1.639.299-2.451.479-3.044.674-8.064.301-8.545,2.499-.517,2.358,4.627,2.371,6.89,4.105.577.442,2.538,1.177,1.184,1.714-4.284,1.698-1.209,3.616-.419,5.272,6.482,13.574.078,31.746-14.183,39.195-3.541,1.85-3.887,2.631-.269,4.725,4.474,2.59,8.45,5.932,11.714,10.004.49.612,1.124,1.815.872,2.18-.723,1.048-1.807.322-2.621-.16-4.436-2.632-8.756-5.472-13.277-7.946-4.858-2.659-10.018-4.456-15.71-4.303-9.445.254-13.716,5.202-12.339,14.569.607,4.131,1.778,8.133,3.36,12.002,1.576,3.853,3.225,7.677,4.746,11.552.651,1.66,1.67,3.943-.064,4.975-1.588.945-2.962-1.128-3.828-2.46-1.753-2.694-2.753-1.114-3.987.412-5.687,7.033-11.987,13.417-19.69,18.28-7.251,4.577-14.993,7.071-23.714,5.883-12.751-1.738-20.456-11.019-19.67-23.907.416-6.83,1.547-13.559,2.92-20.253.435-2.12.919-4.235,1.238-6.374,1.232-8.25.448-15.378-6.872-21.425-8.951-7.393-16.56-16.363-26.385-22.836-3.669-2.417-5.107-6.201-3.417-10.504,1.797-4.575,5.55-6.521,10.3-6.378,3.544.107,6.827,1.402,9.952,3.04,4.897,2.568,9.244,5.919,13.5,9.415,3.485,2.863,3.519,2.792,7.875.571.309-.157.94.192,1.367.412,5.286,2.733,9.567.537,12.885-3.32,7.631-8.871,9.544-19.242,6.386-30.394-1.039-3.67-2.958-7.435-7.723-7.233-2.971.126-6.028,6.538-5.494,10.819.213,1.707.732,3.371,2.473,4.057,1.939.764,3.088-.72,4.194-1.943.656-.726,1.135-1.612,2.151-3.092-.525,5.932-2.581,10.228-6.655,13.427-4.188,3.289-8.761,2.244-11.231-2.419-.523-.987-.956-2.795-1.535-2.838-1.875-.14-.789,2.508-2.27,3.169-.554-11.355,4.722-20.861,14.288-25.302,2.087-.969,2.701-2.047,2.316-4.168-.185-1.019-1.133-2.473.251-3.1,1.112-.504,2.114.712,3.034,1.373,3.163,2.276,5.596,5.198,7.46,8.615.386.707.993,1.912,1.407,1.875,1.483-.133.607-1.543.904-2.369.359-.999-.403-2.801,1.053-2.894,1.526-.097,1.911,1.738,2.182,2.946,3.052,13.61,2.407,26.875-4.839,39.128-2.068,3.497-1.521,4.181,2.194,4.731,12.446,1.843,22.351,7.929,31.714,16.504,3.926,3.596,8.674,8.826,15.317,9.216,1.813.107,3.689.342,5.445.021,13.634-2.491,23.78-20.451,18.955-33.471-1.052-2.838-2.525-5.445-5.031-7.309-3.162-2.351-6.722-4.617-10.549-2.709-4.043,2.016-5.244,6.241-5.333,10.624-.046,2.286.553,4.445,2.85,5.379,2.55,1.037,4.519-.331,6.099-2.225.945-1.133,1.711-2.414,3.166-4.503-1.297,8.392-4.195,14.495-11.577,17.484-6.406,2.594-12.634-.826-14.177-7.547-.323-1.406.462-3.699-.933-4.064-2.025-.531-1.327,2.699-3.282,3.4.241-6.102,3.263-10.725,6.926-15.053,1.094-1.293,2.861-2.59-.63-2.952-1.624-.168-2.558-1.473-3.371-2.754-4.5-7.093-7.689-14.739-9.493-22.942-.353-1.605-.785-3.673,1.05-4.474,1.532-.668,2.628,1.028,3.688,2.04,6.822,6.516,6.785,6.46,15.336,1.859,8.503-4.575,16.998-9.159,26.237-12.195,8.165-2.683,14.997-.407,21.129,5.074Zm-102.001,56.537c-2.267.225-5.583.516-8.888.901-1.116.13-3.02.289-3.149.796-.349,1.366,1.169,2.203,2.043,3.128,3.658,3.873,7.404,7.663,11.094,11.506.556.579,1.44,1.228,1.026,2.104-.57,1.206-1.69.625-2.607.384-4.292-1.128-7.846-3.511-11.168-6.386-9.047-7.83-17.301-16.655-27.971-22.467-2.19-1.193-4.315-2.558-6.934-2.615-1.31-.029-2.904-.443-3.53,1.089-.677,1.657.876,2.379,1.978,2.985,5.591,3.075,10.553,6.975,15.121,11.387,6.463,6.243,12.642,12.802,19.354,18.762,11.186,9.933,23.801,16.384,39.463,14.533,2.807-.332,4.156-1.432,4.614-4.151.506-3.011,1.488-6.133,4.167-7.715,5.191-3.065,2.912-6.166.389-9.197-8.812-10.589-20.379-15.084-35.002-15.045Zm-18.859,65.96c-.145,12.069,3.969,17.546,13.294,18.755,4.484.581,8.929.297,13.248-1.494,9.356-3.88,16.18-10.814,23.055-17.936,4.547-4.711,5.079-9.02,2.033-14.546-1.469-2.665-2.102-2.334-3.44-.118-3.896,6.456-8.534,12.318-14.254,17.278-5.182,4.493-10.994,7.524-18.028,7.521-9.81-.003-13.213-4.557-10.626-14.014,1.666-6.093,3.892-12.051,4.567-18.387.265-2.487.44-5.026-.635-7.365-.566-1.23-1.744-2.161-3.145-2.136-1.332.024-1.283,1.434-1.376,2.318-1.119,10.59-4.329,20.868-4.692,30.125Zm14.792-4.412c.123,3.212-.321,6.367,2.725,7.899,2.888,1.453,5.055-.742,7.116-2.311,4.523-3.442,8.078-7.813,11.557-12.274,1.503-1.927,1.373-3.092-.671-4.333-4.219-2.562-8.601-4.903-13.521-2.411-5.547,2.809-6.802,8.177-7.207,13.429Z"/>
  <path fill="#FFFFFF" d="m17.838,157.539c2.413,7.013,4.654,13.413,6.808,19.842.923,2.755,2.007,3.729,4.982,1.916,3.964-2.416,8.21-4.444,12.506-6.223,5.002-2.071,10.145.04,12.217,4.574,2.107,4.61.326,9.645-4.503,12.288-4.087,2.237-8.252,4.332-12.408,6.44-1.978,1.003-2.745,2.158-1.345,4.303,6.075,9.305,13.526,17.284,22.521,23.821,1.653,1.201,2.325.968,2.219-1.192-.05-1.026-.966-2.71.375-2.972,1.104-.216,1.286,1.706,1.791,2.705,2.132,4.218,4.911,7.93,8.495,11.005,12.54,10.762,27.201,10.847,42.123.204,2.676-1.909,5.177-4.062,8.601-6.768-2.977,7.549-7.968,11.963-13.508,15.926-.926.662-2.525,1.513-2.479,2.184.115,1.663,1.998,1.401,3.197,1.651,38.698,8.074,76.463,6.265,112.775-10.752,1.958-.918,3.93-1.819,5.948-2.592,1.19-.456,2.917-1.708,3.638-.544.851,1.375-.974,2.54-1.94,3.58-1.946,2.095-4.347,3.596-6.797,5.039-12.832,7.558-27.017,11.187-41.457,13.702-26.573,4.627-52.94,3.374-79.108-3.413-5.587-1.449-11.135-3.308-16.986-3.856-3.14-.294-6.145-1.601-8.814-3.347-17.167-11.231-34.509-22.307-44.85-40.982-1.463-2.643-2.78-2.25-4.561-.589-3.407,3.178-6.907,6.26-10.24,9.514-4.632,4.522-10.123,5.031-14.169,1.151-4.037-3.871-3.808-9.337.644-14.171,4.982-5.409,10.444-10.301,16.48-14.493,2.146-1.49,2.534-2.912,1.743-5.41-2.251-7.112-3.975-14.362-3.9-22.54Zm31.64,23.83c-.158-2.322-2.444-4.138-4.669-3.244-12.129,4.872-22.886,11.943-32.337,20.961-2.567,2.449.97,3.173,1.646,4.68.687,1.532,1.723,2.391,3.388.761,8.515-8.337,18.603-14.317,29.281-19.406,1.584-.755,2.607-2.01,2.69-3.752Z"/>
  <path fill="#FFFFFF" d="m179.328,166.486c-.239,1.758-1.11,3.064-3.083,3.13-2.259.076-3.381-1.34-3.285-3.404.084-1.827,1.3-3.033,3.248-2.97,1.945.062,2.915,1.285,3.121,3.244Z"/>
  <path fill="#FFFFFF" d="m182.976,180.592c-1.512-.208-2.45-.955-2.488-2.546-.037-1.534.717-2.625,2.222-2.756,1.786-.155,2.77.924,2.714,2.702-.047,1.511-.984,2.359-2.447,2.6Z"/>
  <path fill="#FFFFFF" d="m187.973,166.384c1.426.344,2.381,1.165,2.199,2.731-.178,1.53-1.179,2.311-2.729,2.139-1.375-.153-1.905-1.11-1.911-2.406-.008-1.615.9-2.342,2.441-2.463Z"/>
</svg>