<svg width="100" height="100" viewBox="0 0 100 100" fill="none" xmlns="http://www.w3.org/2000/svg">
<rect width="100" height="100" rx="8" fill="#242424"/>
<path d="M22.544 32.128H17.04C16.912 37.76 16.912 43.2 16.912 49.28H21.84C28.752 49.28 31.952 45.568 31.952 40.448C31.952 35.072 29.136 32.128 22.544 32.128ZM10.832 52.16V49.024C10.832 43.52 10.832 38.016 10.704 32.512L4.816 31.808V29.184H22.736C32.528 29.184 38.288 33.344 38.288 40.384C38.288 45.376 34.704 49.92 27.536 51.2C31.312 51.968 33.616 54.272 35.088 59.328L37.84 68.8L42.768 69.376V72C41.488 72.384 39.952 72.64 37.968 72.64C33.936 72.64 32.144 71.616 31.376 68.544L28.816 58.304C27.6 53.12 25.232 52.16 20.048 52.16H16.912C16.912 58.304 16.912 63.552 17.04 68.672L22.928 69.376V72H4.816V69.376L10.704 68.672C10.832 63.296 10.832 57.728 10.832 52.16ZM53.5585 72.832C46.0705 72.832 38.9025 67.52 38.9025 56.96C38.9025 46.336 46.1345 40.768 53.5585 40.768C60.9185 40.768 68.2785 46.336 68.2785 56.96C68.2785 67.52 60.9825 72.832 53.5585 72.832ZM53.5585 69.952C59.0625 69.952 62.1985 65.536 62.1985 56.96C62.1985 48.32 59.0625 43.712 53.5585 43.712C47.9905 43.712 44.9825 48.32 44.9825 56.96C44.9825 65.536 47.9905 69.952 53.5585 69.952ZM79.5315 43.392C75.4995 43.392 73.0675 46.656 73.0675 51.328C73.0675 56 75.3075 59.2 79.2755 59.2C83.3715 59.2 85.8035 55.808 85.8035 51.072C85.8035 46.528 83.4995 43.392 79.5315 43.392ZM67.8835 51.264C67.8835 44.544 72.8115 40.768 79.4675 40.768C82.7315 40.768 85.5475 41.6 87.5955 43.264L94.8275 40.768L95.7875 41.408V45.44H89.5155C90.4755 46.976 90.9875 48.96 90.9875 51.264C90.9875 57.984 86.0595 61.76 79.4035 61.76C77.6755 61.76 76.0755 61.504 74.6675 61.056C73.5795 62.464 73.0675 63.68 73.0675 65.152C73.0675 66.88 73.7715 67.968 76.7795 67.968H85.1635C92.2035 67.968 95.4675 71.04 95.4675 76.224C95.4675 81.792 90.1555 87.296 79.6595 87.296C70.3795 87.296 66.4115 84.096 66.4115 79.552C66.4115 76.8 67.9475 74.56 72.6835 72.256C69.8675 71.488 68.4595 69.888 68.4595 67.392C68.4595 65.408 69.6115 63.232 72.8115 60.288C69.7395 58.624 67.8835 55.616 67.8835 51.264ZM79.9155 84.352C86.8915 84.352 90.6675 81.472 90.6675 77.888C90.6675 75.072 88.8755 72.896 84.2675 72.896H76.7795C75.8835 72.896 74.9875 72.832 74.1555 72.768C72.3635 74.688 71.6595 76.416 71.6595 78.528C71.6595 82.688 74.8595 84.352 79.9155 84.352Z" fill="#F0FEFF"/>
</svg>
