<?xml version="1.0" encoding="UTF-8"?>
<svg id="Layer_1" data-name="Layer 1" xmlns="http://www.w3.org/2000/svg" viewBox="0 0 78.471 87.326">
  <path d="m27.277,44.99c-3.568,7.656-5.761,10.893-17.098,6.199-11.337-4.694-9.64,10.013-.443,11.603,11.447,1.979,16.829-4.783,18.689-11.957" fill="#171616"/>
  <path d="m27.638,45.159c-.287.664-.577,1.327-.883,1.987-.309.659-.633,1.314-.99,1.959-.357.645-.753,1.277-1.213,1.88-.46.6-.99,1.171-1.618,1.648-.626.476-1.348.849-2.109,1.076-.76.229-1.547.326-2.316.331-.771.006-1.528-.076-2.268-.2-.74-.127-1.466-.297-2.178-.496-1.426-.395-2.804-.902-4.157-1.451-.641-.259-1.289-.481-1.941-.632-.651-.151-1.307-.237-1.931-.207-.623.026-1.21.173-1.679.466-.471.29-.825.727-1.041,1.264-.217.536-.297,1.158-.268,1.788.028.632.165,1.272.376,1.89.423,1.239,1.156,2.389,2.094,3.316.47.463.993.871,1.556,1.211.282.169.573.322.874.455.3.135.607.252.922.351.314.099.635.176.959.238l.515.088.518.078c.691.096,1.387.16,2.08.188,1.387.055,2.775-.029,4.122-.304.672-.142,1.335-.324,1.976-.564.642-.237,1.264-.527,1.861-.86,1.194-.671,2.274-1.547,3.206-2.568.937-1.018,1.721-2.184,2.373-3.426.326-.621.615-1.263.875-1.92.261-.655.488-1.326.686-2.006v-.002c.062-.212.283-.333.495-.271.204.059.324.268.277.473-.166.714-.363,1.422-.597,2.121-.237.697-.511,1.384-.824,2.055-.626,1.341-1.423,2.616-2.395,3.76-.973,1.141-2.133,2.138-3.431,2.919-1.296.785-2.73,1.334-4.199,1.671-.736.165-1.481.283-2.23.35-.748.067-1.498.083-2.245.063-.747-.021-1.49-.079-2.227-.173l-.552-.076-.552-.087c-.385-.067-.767-.154-1.142-.267-1.505-.443-2.887-1.281-4.003-2.373-1.116-1.094-1.981-2.435-2.498-3.923-.255-.744-.419-1.529-.454-2.339-.032-.807.066-1.65.393-2.452.164-.399.387-.786.671-1.129.283-.344.628-.642,1.007-.874.378-.232.788-.4,1.201-.508.413-.11.83-.164,1.238-.179.819-.028,1.603.092,2.352.275.75.184,1.467.441,2.158.731,1.311.552,2.638,1.057,3.98,1.466.671.204,1.348.378,2.026.51.339.063.678.12,1.017.158.339.039.676.062,1.012.071.671.017,1.332-.047,1.959-.215.627-.167,1.215-.446,1.749-.826.536-.377,1.019-.849,1.455-1.376.437-.526.829-1.105,1.2-1.703.37-.599.716-1.221,1.049-1.853.337-.63.662-1.27.985-1.913h0c.099-.197.339-.277.535-.178.189.093.269.32.186.512Z" fill="#171616"/>
  <path d="m27.638,45.159c-.287.664-.577,1.327-.883,1.987-.309.659-.633,1.314-.99,1.959-.357.645-.753,1.277-1.213,1.88-.46.6-.99,1.171-1.618,1.648-.626.476-1.348.849-2.109,1.076-.76.229-1.547.326-2.316.331-.771.006-1.528-.076-2.268-.2-.74-.127-1.466-.297-2.178-.496-1.426-.395-2.804-.902-4.157-1.451-.641-.259-1.289-.481-1.941-.632-.651-.151-1.307-.237-1.931-.207-.623.026-1.21.173-1.679.466-.471.29-.825.727-1.041,1.264-.217.536-.297,1.158-.268,1.788.028.632.165,1.272.376,1.89.423,1.239,1.156,2.389,2.094,3.316.47.463.993.871,1.556,1.211.282.169.573.322.874.455.3.135.607.252.922.351.314.099.635.176.959.238l.515.088.518.078c.691.096,1.387.16,2.08.188,1.387.055,2.775-.029,4.122-.304.672-.142,1.335-.324,1.976-.564.642-.237,1.264-.527,1.861-.86,1.194-.671,2.274-1.547,3.206-2.568.937-1.018,1.721-2.184,2.373-3.426.326-.621.615-1.263.875-1.92.261-.655.488-1.326.686-2.006v-.002c.062-.212.283-.333.495-.271.204.059.324.268.277.473-.166.714-.363,1.422-.597,2.121-.237.697-.511,1.384-.824,2.055-.626,1.341-1.423,2.616-2.395,3.76-.973,1.141-2.133,2.138-3.431,2.919-1.296.785-2.73,1.334-4.199,1.671-.736.165-1.481.283-2.23.35-.748.067-1.498.083-2.245.063-.747-.021-1.49-.079-2.227-.173l-.552-.076-.552-.087c-.385-.067-.767-.154-1.142-.267-1.505-.443-2.887-1.281-4.003-2.373-1.116-1.094-1.981-2.435-2.498-3.923-.255-.744-.419-1.529-.454-2.339-.032-.807.066-1.65.393-2.452.164-.399.387-.786.671-1.129.283-.344.628-.642,1.007-.874.378-.232.788-.4,1.201-.508.413-.11.83-.164,1.238-.179.819-.028,1.603.092,2.352.275.75.184,1.467.441,2.158.731,1.311.552,2.638,1.057,3.98,1.466.671.204,1.348.378,2.026.51.339.063.678.12,1.017.158.339.039.676.062,1.012.071.671.017,1.332-.047,1.959-.215.627-.167,1.215-.446,1.749-.826.536-.377,1.019-.849,1.455-1.376.437-.526.829-1.105,1.2-1.703.37-.599.716-1.221,1.049-1.853.337-.63.662-1.27.985-1.913h0c.099-.197.339-.277.535-.178.189.093.269.32.186.512Z" fill="#171616"/>
  <path d="m4.171,53.958c.157-.132.326-.254.511-.354.185-.098.382-.181.587-.236.41-.114.839-.128,1.247-.089.103.008.204.024.306.038.1.019.201.035.299.058.199.042.391.096.583.153.19.059.379.12.564.188.185.067.366.14.547.213.361.146.715.301,1.066.456l1.044.468c.693.308,1.385.602,2.088.85.702.249,1.414.451,2.136.59.721.139,1.453.207,2.186.2.367-.002.733-.03,1.099-.071.366-.04.731-.102,1.093-.184.727-.154,1.437-.395,2.143-.665h.002c.1-.039.212.011.25.111.034.09-.002.188-.081.236-1.334.799-2.878,1.312-4.473,1.413-.796.048-1.6.005-2.383-.132-.785-.133-1.549-.35-2.288-.616-1.48-.53-2.848-1.268-4.206-1.912-.17-.078-.341-.156-.512-.228-.17-.075-.342-.144-.513-.209-.343-.129-.691-.233-1.038-.298-.174-.034-.348-.049-.52-.057-.173-.005-.344.008-.514.034-.17.025-.333.078-.496.14-.162.062-.315.15-.467.243l-.01.006c-.102.062-.233.03-.295-.072-.056-.09-.034-.208.046-.275Z" fill="#3d3d3d"/>
  <path d="m63.189,45.71c2.001,4.813,7.669,3.015,10.975,1.832,3.306-1.184,5.124,4.133,1.01,7.649-3.414,2.918-9.848.521-10.828-3.266" fill="#171616"/>
  <path d="m71.372,57.415c-.877,0-1.789-.141-2.703-.429-2.664-.839-4.663-2.689-5.218-4.829-.128-.494.169-.998.662-1.126.494-.128.998.169,1.126.662.389,1.505,1.954,2.89,3.984,3.529,2.056.647,4.056.372,5.35-.735,2.104-1.799,2.443-4.143,1.694-5.436-.281-.485-.821-.99-1.792-.643-2.012.72-4.165,1.387-6.27,1.387h-.02c-2.813-.006-4.836-1.297-5.849-3.734-.196-.471.028-1.011.499-1.207.47-.196,1.011.027,1.207.499.735,1.766,2.052,2.591,4.148,2.596h.021c1.028,0,2.506-.156,5.643-1.279,1.594-.571,3.169,0,4.012,1.454.599,1.032.763,2.402.451,3.757-.345,1.496-1.224,2.882-2.542,4.009-1.172,1.002-2.721,1.522-4.402,1.522Z" fill="#171616"/>
  <path d="m64.622,48.926c.463.59,1.132,1.022,1.871,1.318.371.146.758.265,1.156.349.397.088.803.144,1.213.174.409.033.822.033,1.232.008.41-.023.819-.08,1.219-.164.399-.088.791-.207,1.159-.374.368-.164.711-.378,1.004-.646l.006-.006c.102-.094.262-.088.356.015.084.091.087.226.016.321-.287.38-.66.683-1.058.925-.401.241-.829.424-1.268.561-.88.275-1.799.379-2.715.356-.458-.014-.917-.064-1.372-.15-.453-.093-.904-.216-1.339-.395-.436-.176-.858-.404-1.246-.692-.385-.29-.739-.643-1.005-1.063-.139-.22-.074-.51.146-.65.206-.13.474-.081.621.106l.004.008Z" fill="#3d3d3d"/>
  <path d="m66.863,62.423c4.179,3.391,1.233,11.133-3.802,8.838-4.66,3.079-8.703,2.56-8.703,2.56,0,2.825,3.177,2.95,3.177,4.386s-2.035,4.93-3.621,6.515l-1.111-.748s-1.276,3.6-8.171,2.353c.437-2.571,1.745-4.248,1.745-4.248-1.624-.545-2.298-1.607-2.298-1.607l3.451-.907-6.479-5.238c-8.025.987-13.228-2.271-13.228-8.636s6.469-8.652,9.79-7.013c-7.176-15.101,4.056-26.466,14.915-14.859.274.292.761.165.864-.221,2.132-8.017,5.182-6.9,7.125-3.201,2.014,3.836,4.256,7.618,2.894,17.262,3.017,1.459,3.781,2.493,3.451,4.765Z" fill="#f2f2f2"/>
  <path d="m55.396,43.663c.034-.079.073-.156.11-.235l.059-.117.067-.112c.045-.075.09-.15.14-.223.051-.072.105-.142.159-.214.223-.279.489-.535.792-.752.305-.215.65-.387,1.014-.5.364-.115.746-.172,1.123-.175.757-.007,1.484.201,2.114.541.315.17.609.376.873.617.262.241.502.513.677.844.093.176.026.393-.149.486-.121.064-.262.052-.368-.019l-.026-.018c-.117-.079-.239-.153-.361-.226-.126-.07-.25-.14-.38-.201-.256-.126-.519-.238-.785-.327-.531-.18-1.067-.286-1.585-.286-.519,0-1.017.11-1.497.338-.24.114-.474.259-.706.424-.234.165-.453.362-.691.56l-.017.014c-.153.127-.38.106-.507-.046-.091-.108-.107-.253-.056-.372Z" fill="#e0dbd3"/>
  <path d="m41.16.684c1.964,1.697,5.276,8.514,6.696,13.381,1.419,4.867,4.269,15.672,4.306,18.233.037,2.561-6.428,1.73-6.12-1.307l.569-4.109-.651-5.948-1.159-4.219-1.222-4.946s-1.65-4.743-1.46-4.772c.19-.029-1.532-5.006-1.532-5.006l.573-1.307Z" fill="#b8b3ad"/>
  <path d="m51.345,33.6c-.036-.812-.164-1.652-.321-2.487-.16-.836-.349-1.676-.553-2.516-.203-.841-.425-1.68-.631-2.54-.051-.216-.102-.432-.15-.653-.048-.223-.094-.445-.132-.691l-.025-.187-.019-.173-.033-.339-.055-.656c-.071-.857-.169-1.668-.363-2.462-.191-.792-.47-1.559-.825-2.298l-.144-.304c-.049-.105-.096-.211-.143-.318-.093-.214-.179-.434-.26-.657-.16-.448-.289-.927-.366-1.404-.04-.238-.067-.47-.093-.685-.025-.217-.05-.414-.084-.6-.065-.371-.172-.717-.326-1.076-.018-.045-.039-.089-.059-.134l-.066-.147c-.05-.108-.097-.221-.144-.334-.091-.227-.173-.466-.237-.712-.064-.245-.112-.497-.146-.727-.034-.232-.06-.436-.093-.621-.033-.186-.077-.358-.132-.535-.056-.176-.125-.353-.203-.531-.157-.357-.354-.718-.564-1.076-.051-.09-.108-.179-.161-.268l-.174-.286c-.117-.195-.232-.394-.342-.597-.22-.406-.428-.835-.594-1.284-.083-.224-.156-.45-.221-.665-.065-.214-.123-.413-.187-.599-.064-.186-.132-.363-.213-.54-.08-.176-.17-.352-.268-.528-.196-.351-.42-.7-.659-1.046-.121-.174-.24-.345-.363-.507-.123-.163-.248-.321-.376-.466-.127-.146-.259-.28-.382-.384-.061-.052-.12-.094-.162-.118-.04-.025-.07-.028-.016-.02.027.002.078,0,.135-.02.057-.02.107-.056.132-.083.05-.058.029-.05.019-.011-.013.04-.028.107-.036.181-.008.075-.013.16-.012.247-.002.176.013.365.037.556.022.191.056.385.097.577.02.096.042.192.067.287.012.049.025.089.037.133.01.044.025.087.038.129.055.17.125.337.208.498.167.321.391.622.668.891.138.136.289.262.448.383.08.061.163.117.248.171.042.028.085.055.128.081.041.025.09.052.122.073l.043.028c.123.08.158.246.078.369-.056.087-.155.13-.251.12-.074-.007-.129-.014-.19-.025-.06-.01-.119-.022-.178-.035-.117-.028-.232-.062-.347-.101-.229-.078-.45-.181-.663-.304-.425-.247-.811-.59-1.115-1.003-.152-.206-.283-.43-.391-.663-.056-.114-.102-.239-.144-.353-.04-.113-.077-.227-.111-.342-.067-.23-.122-.465-.165-.704-.04-.241-.068-.487-.075-.747-.002-.262.004-.531.101-.866.025-.084.061-.176.11-.272.049-.096.119-.202.222-.306.102-.103.245-.202.405-.256.159-.057.322-.069.457-.057.138.011.247.043.345.077l.071.027.063.028c.044.019.079.04.118.06.148.082.265.169.374.256.214.174.389.352.552.531.324.357.602.729.863,1.093.263.367.519.747.756,1.153.118.204.232.414.336.633.105.218.198.446.28.671.081.225.149.444.215.646.065.202.13.389.202.573.142.366.317.723.516,1.082.099.179.205.357.314.534l.169.271c.06.097.12.191.179.291.235.392.462.795.661,1.235.099.22.191.448.271.687.078.238.144.489.19.733.047.244.077.472.108.671.031.201.067.378.116.554.048.176.108.351.179.528.037.089.074.177.115.267l.068.151c.025.055.05.109.073.165.095.223.182.454.256.694.073.239.132.487.176.73.044.243.073.478.099.695.026.217.05.419.083.611.063.383.163.75.296,1.123.068.186.141.372.222.559l.124.279.135.289c.395.836.71,1.718.921,2.624.106.452.188.91.247,1.364.061.455.096.908.128,1.348l.045.648.025.312.015.152c.005.05.011.091.017.138.026.186.066.391.108.595.042.205.089.414.137.623.194.839.401,1.69.595,2.547.194.858.38,1.723.526,2.603.146.881.265,1.774.286,2.705.009.389-.3.712-.689.721-.384.009-.703-.292-.721-.673v-.007Z" fill="#171616"/>
  <path d="m44.851,10.439c-.551-.081-1.112-.236-1.651-.572-.266-.169-.521-.388-.729-.647-.208-.259-.368-.546-.49-.827-.239-.566-.359-1.1-.477-1.609-.113-.511-.218-1.004-.31-1.505v-.006c-.068-.361.171-.708.532-.774.313-.058.615.114.733.396.214.508.363,1.04.485,1.556.123.516.217,1.019.348,1.442.067.211.144.398.24.571.099.17.22.328.373.48.304.306.729.564,1.171.827l.01.006c.17.101.226.321.125.491-.076.128-.22.191-.36.171Z" fill="#171616"/>
  <path d="m45.941,15.384c-.601-.157-1.198-.452-1.698-.904-.248-.226-.472-.486-.656-.768-.185-.282-.334-.584-.452-.888-.238-.611-.356-1.228-.438-1.814-.081-.588-.128-1.148-.184-1.681v-.013c-.04-.365.226-.691.59-.729.321-.033.611.167.703.463.186.599.268,1.19.354,1.746.084.558.165,1.085.303,1.57.138.485.333.925.629,1.317.291.396.688.735,1.138,1.055l.01.007c.161.114.198.338.084.498-.089.126-.243.176-.382.14Z" fill="#171616"/>
  <path d="m46.944,20.389c-.297-.07-.59-.174-.878-.313-.285-.142-.563-.326-.812-.555-.249-.229-.468-.503-.638-.802-.172-.299-.291-.62-.377-.937-.169-.637-.2-1.253-.211-1.824-.009-.573.002-1.109-.016-1.612v-.018c-.014-.366.273-.674.639-.687.321-.011.596.206.669.507.15.618.168,1.219.186,1.776.016.558.025,1.081.102,1.552.076.472.227.883.499,1.257.136.186.298.366.488.531.189.167.402.32.624.477l.013.009c.161.114.2.337.085.499-.086.123-.235.173-.373.141Z" fill="#171616"/>
  <path d="m48.212,25.246c-.306-.071-.608-.173-.906-.306-.294-.139-.587-.309-.855-.528-.268-.218-.513-.484-.709-.783-.197-.298-.347-.626-.451-.952-.209-.657-.265-1.293-.312-1.878-.043-.587-.078-1.128-.153-1.647l-.002-.014c-.052-.363.2-.699.564-.751.319-.046.617.144.721.437.22.626.291,1.265.344,1.853.051.59.083,1.138.19,1.62.106.482.294.896.613,1.275.158.189.344.369.552.537.209.17.439.324.676.485l.012.008c.163.111.205.333.093.497-.086.124-.238.178-.377.146Z" fill="#171616"/>
  <path d="m46.789,23.539c.041.296.049.583.056.864.006.28.005.554.007.821.003.532.02,1.038.098,1.502.079.465.216.88.449,1.27.117.196.259.386.428.571.167.188.359.366.564.561l.01.01c.111.105.114.281.008.391-.063.066-.152.093-.236.083-.308-.04-.61-.134-.901-.275-.291-.141-.566-.336-.806-.577-.241-.239-.44-.526-.593-.832-.037-.076-.07-.155-.103-.233-.031-.079-.06-.158-.087-.238l-.069-.241c-.019-.08-.038-.161-.053-.241-.12-.647-.085-1.278.018-1.866.109-.59.28-1.141.51-1.665h0c.081-.187.298-.271.483-.19.119.053.197.164.215.285Z" fill="#171616"/>
  <path d="m47.993,34.313c-.306-.079-.605-.202-.893-.366-.285-.166-.558-.375-.793-.629-.235-.253-.432-.547-.581-.86-.15-.313-.253-.644-.318-.973-.131-.662-.115-1.319-.027-1.939.09-.621.25-1.215.464-1.771.132-.342.516-.514.859-.382.301.115.469.426.417.732v.004c-.096.558-.207,1.093-.275,1.618-.069.524-.099,1.037-.052,1.52.049.483.179.931.426,1.333.244.405.619.752,1.062,1.07l.01.007c.161.115.197.339.082.499-.09.123-.243.173-.382.138Z" fill="#171616"/>
  <path d="m44.284,11.539c-.305-1.431.41-1.117.41-1.117l-.788-.795s-.839-.312-.808-.229c.031.083,1.186,2.14,1.186,2.14Z" fill="#171616"/>
  <path d="m45.905,15.388c-.586-.157-.376.883-.376.883,0,0-.936-.614-.913-.688.024-.074.169-1.204.169-1.204l1.12,1.008Z" fill="#171616"/>
  <path d="m46.947,20.398c-.424-.129-.458.456-.428.768.03.312-.457,0-.457,0l-.167-2.031,1.053,1.263Z" fill="#171616"/>
  <path d="m47.917,25.173c-.88-.235-1.113.31-1.009,1.225-.588-.983-.342-2.251-.342-2.251l1.351,1.025Z" fill="#171616"/>
  <path d="m59.277,38.728c-3.774-4.573-9.484-7.487-15.876-7.487-11.363,0-20.574,9.211-20.574,20.574,0,4.965,2.028,9.496,4.997,12.714,2.005-9.269,9.79-5.851,9.79-5.851-9.557-18.746,8.351-25.029,15.285-14.263,2.129-9.476,6.377-5.686,6.377-5.686Z" fill="#171616"/>
  <path d="m27.825,65.312c-.212,0-.422-.085-.576-.253-3.307-3.584-5.204-8.412-5.204-13.245,0-5.705,2.222-11.068,6.255-15.102s9.397-6.256,15.102-6.256,11.068,2.222,15.102,6.256c4.034,4.034,6.255,9.397,6.255,15.102,0,1.884-.245,3.752-.729,5.555-.112.418-.543.666-.961.554-.418-.112-.666-.543-.554-.96.448-1.67.676-3.402.676-5.149,0-5.286-2.059-10.256-5.797-13.994s-8.708-5.796-13.994-5.796-10.256,2.058-13.994,5.796c-3.738,3.738-5.796,8.708-5.796,13.994,0,4.444,1.745,8.884,4.789,12.182.294.318.274.814-.044,1.108-.15.139-.341.208-.531.208Z" fill="#171616"/>
  <path d="m51.304,61.808c.954-1.39,2.298-2.532,3.819-3.339,1.524-.808,3.225-1.289,4.964-1.415.435-.033.872-.034,1.311-.018.219.011.438.029.657.053.219.023.437.053.655.096.217.04.434.087.65.142.215.057.428.123.641.196.423.146.838.333,1.233.564.395.232.774.504,1.108.842.169.164.322.352.463.547.139.197.257.413.357.636.094.227.164.463.2.705.031.242.034.486,0,.721-.035.234-.094.461-.187.669-.089.21-.204.402-.339.576-.052.066-.149.078-.215.027-.043-.033-.063-.084-.058-.134v-.006c.038-.412.053-.793,0-1.144-.026-.176-.071-.342-.122-.501-.059-.158-.127-.309-.211-.452-.089-.141-.188-.276-.304-.401-.119-.122-.242-.241-.384-.344-.276-.212-.595-.384-.928-.529-.668-.292-1.408-.457-2.155-.568-.094-.013-.188-.025-.282-.036-.094-.011-.188-.025-.283-.032-.189-.019-.38-.031-.57-.04-.381-.023-.765-.024-1.15-.011-1.539.055-3.083.377-4.532.96-1.453.579-2.808,1.429-4.007,2.52-.089.081-.227.075-.307-.014-.073-.076-.077-.188-.022-.27Z" fill="#171616"/>
  <path d="m37.471,59.187c-.167-.027-.334-.055-.5-.085l-.124-.022c-.042-.007-.084-.01-.125-.016l-.25-.03-.248-.032-.249-.019c-.165-.011-.33-.03-.495-.028l-.246-.005c-.082-.002-.164-.004-.245,0-.162.007-.325.006-.487.02-.161.017-.321.028-.48.049-.157.028-.315.049-.471.079-.621.123-1.212.33-1.751.615-.538.288-1.028.65-1.448,1.085-.419.435-.77.937-1.055,1.478-.038.066-.069.136-.102.206l-.098.208c-.057.143-.117.285-.17.429-.102.291-.197.586-.262.889-.138.605-.214,1.228-.216,1.854.001.625.063,1.252.196,1.862.26,1.221.783,2.383,1.554,3.346.762.971,1.768,1.736,2.919,2.246,1.151.51,2.44.772,3.762.82.33.023.665.013.999.013l.503-.026c.084-.005.168-.007.252-.014l.253-.022c.168-.016.338-.028.506-.047l.506-.067c.084-.011.17-.019.254-.033l.253-.042c.169-.028.339-.056.509-.081l.022-.004c.289-.044.56.155.604.444.04.258-.114.501-.353.582-.684.234-1.381.448-2.1.591l-.269.059c-.09.018-.181.03-.272.046l-.546.087c-.368.04-.736.089-1.109.104-1.487.087-3.033-.099-4.491-.647l-.273-.105c-.09-.036-.179-.079-.268-.119l-.267-.121c-.089-.041-.174-.09-.261-.135l-.259-.14c-.086-.047-.168-.102-.252-.152l-.25-.155c-.083-.053-.161-.113-.242-.169-.645-.453-1.228-.998-1.735-1.603-.504-.608-.934-1.277-1.269-1.988-.333-.712-.587-1.459-.747-2.225-.159-.765-.239-1.546-.224-2.328.018-.781.12-1.562.321-2.322.2-.76.487-1.503.889-2.191.395-.69.896-1.327,1.484-1.874.593-.542,1.275-.988,2.005-1.307.73-.321,1.504-.515,2.275-.593.772-.075,1.539-.049,2.281.067.187.022.369.064.552.1l.274.055.269.07c.36.09.709.208,1.055.327.277.095.424.395.33.673-.085.248-.336.392-.586.351l-.031-.007Z" fill="#171616"/>
  <path d="m47.381,79.885c-.215.197-.457.368-.72.514-.263.146-.546.259-.83.345-.285.085-.573.148-.86.19-.286.043-.571.066-.854.083l.501-.645c.017.099.047.197.093.292.045.096.104.191.176.279.144.179.338.336.558.461.221.124.47.216.732.27.262.054.537.069.819.048h.011c.152-.012.285.102.297.255.009.12-.06.228-.165.275-.318.139-.67.209-1.028.212-.357.002-.72-.062-1.063-.198-.343-.135-.668-.342-.94-.626-.134-.142-.255-.305-.353-.484-.096-.18-.17-.378-.212-.585l-.119-.59.62-.055.791-.069c.26-.027.516-.055.767-.093.251-.038.498-.083.745-.145.247-.061.498-.137.762-.212h.005c.149-.043.305.043.348.193.028.107-.007.216-.082.285Z" fill="#171616"/>
  <path d="m53.141,77.996c-1.217.119-2.682-.232-4.497-1.057-1.815-.825-2.571-1.71-2.792-2.445-.366-1.218,2.686-1.548,4.5-.723,1.814.826,3.314,3.067,2.788,4.225Z" fill="gray"/>
  <path d="m47.585,82.052c-.419.204-.808.452-1.143.747-.336.294-.612.637-.812,1.011-.2.375-.324.781-.375,1.195-.026.207-.033.417-.023.623.005.103.014.205.028.305.007.05.015.099.024.146l.015.068.007.03.004.014s.002.007.002.002l-.572-.549c.437.033.871.077,1.3.113.431.036.858.069,1.282.088.846.034,1.687.031,2.469-.154.391-.088.766-.218,1.112-.404.349-.181.67-.418.956-.705.579-.572,1.009-1.335,1.362-2.141h0c.049-.112.179-.163.291-.115.097.043.148.146.128.246-.09.45-.214.9-.39,1.339-.173.44-.403.868-.697,1.265-.294.394-.658.752-1.07,1.042-.413.29-.872.511-1.34.676-.47.162-.95.265-1.427.335-.478.07-.954.096-1.426.097-.472,0-.939-.029-1.399-.084-.461-.051-.916-.127-1.364-.231l-.505-.115-.068-.434c-.003-.02-.005-.031-.006-.043l-.003-.031-.005-.059c-.003-.038-.005-.075-.006-.112-.003-.073-.004-.144-.003-.215.002-.142.011-.281.024-.42.028-.277.079-.55.154-.816.147-.532.391-1.037.717-1.475.326-.437.729-.803,1.17-1.086.44-.285.913-.493,1.393-.645.14-.044.289.033.334.173.04.127-.02.262-.137.319h-.002Z" fill="#171616"/>
  <path d="m53.269,83.948c.046.065.105.118.181.166.076.047.167.088.267.122.099.034.208.059.318.079.055.009.111.016.167.022.028.003.055.004.082.006h.039c.01,0,.029.003.028,0l-.527.15.132-.13.137-.141c.091-.095.181-.191.27-.289.177-.196.35-.397.517-.601.331-.411.638-.838.91-1.279.271-.44.504-.898.675-1.361.168-.462.275-.933.27-1.372,0-.111-.014-.217-.031-.321-.023-.103-.049-.204-.085-.3-.071-.191-.153-.37-.25-.548-.095-.179-.215-.354-.363-.517-.037-.041-.073-.082-.115-.121-.04-.04-.079-.08-.124-.117-.074-.067-.201-.176-.309-.277-.22-.205-.431-.425-.626-.662-.194-.239-.374-.497-.523-.777-.149-.28-.271-.585-.334-.91-.032-.162-.05-.33-.047-.501.002-.085.007-.172.022-.259.007-.043.016-.088.026-.133.005-.022.011-.046.019-.069l.011-.037.017-.051c.058-.186.256-.29.442-.232.186.058.29.256.232.442.004-.01.003-.005.004-.005,0,0,0,.003,0,.005v.013s.003.032.003.032c.002.023.005.047.008.072.008.05.017.102.031.153.027.103.066.206.112.308.096.202.223.395.374.575.153.18.321.351.509.509.186.159.383.31.593.449.188.117.481.324.717.544.243.224.47.481.658.775.188.293.312.632.377.973.067.342.076.685.064,1.015-.022.664-.196,1.277-.423,1.838-.23.563-.524,1.078-.842,1.567-.32.487-.671.945-1.043,1.381-.185.219-.376.432-.572.64-.098.104-.198.207-.3.309l-.155.152c-.054.052-.102.099-.164.156l-.228.21-.299-.059c-.035-.01-.049-.016-.072-.024l-.06-.023c-.039-.016-.077-.032-.114-.049-.075-.033-.148-.069-.221-.107-.144-.077-.285-.164-.421-.268-.135-.103-.267-.224-.381-.372-.114-.147-.208-.327-.251-.52-.043-.19.077-.378.267-.42.143-.032.284.028.363.14l.038.052Z" fill="#171616"/>
  <path d="m39.169,72.014c.485.205.926.493,1.328.813.403.32.771.671,1.117,1.032.347.36.677.728,1.005,1.09.327.363.651.721.977,1.07.654.694,1.331,1.342,2.065,1.884.367.271.744.52,1.137.738.197.108.392.215.594.311.202.095.406.186.611.271.206.084.416.163.628.232.212.073.426.137.643.194.433.114.881.205,1.33.266.899.122,1.816.147,2.703.043.442-.053.878-.135,1.287-.26.408-.125.794-.291,1.104-.502.076-.053.148-.108.214-.165.064-.058.123-.117.176-.176.102-.121.174-.244.215-.371.04-.128.055-.263.037-.416-.016-.152-.066-.319-.14-.49l-.008-.019c-.156-.358.007-.774.365-.931.344-.15.743-.004.913.325.138.268.255.564.311.896.058.329.049.691-.041,1.035-.089.344-.256.656-.456.918-.101.13-.209.25-.322.359-.114.108-.232.206-.353.296-.485.357-1.002.591-1.52.766-.52.174-1.044.29-1.567.363-1.049.145-2.099.135-3.133.006-.518-.065-1.029-.16-1.54-.291-.51-.128-1.013-.299-1.499-.508-.487-.207-.954-.463-1.399-.745-.441-.289-.862-.604-1.252-.948-.392-.341-.757-.707-1.102-1.082-.344-.376-.665-.766-.973-1.159-.617-.784-1.166-1.595-1.753-2.345-.295-.374-.593-.738-.919-1.067-.325-.328-.677-.622-1.065-.854l-.004-.002c-.153-.092-.202-.29-.111-.443.081-.14.254-.193.4-.132Z" fill="#171616"/>
  <path d="m44.657,65.615c-.211-.034-.413-.066-.616-.084-.202-.019-.401-.028-.598-.026-.392.003-.77.051-1.124.152-.354.102-.685.256-1.001.466-.158.105-.312.224-.465.355-.153.132-.3.278-.462.428l-.012.011c-.123.114-.315.108-.429-.015-.073-.078-.096-.186-.073-.283.061-.241.161-.472.287-.693.128-.22.288-.425.473-.611.37-.372.851-.651,1.364-.791.513-.143,1.048-.155,1.55-.06.501.098.98.296,1.369.623.128.107.144.298.037.425-.071.084-.178.12-.279.104l-.023-.002Z" fill="#171616"/>
  <path d="m45.219,74.345c.434-.353.972-.569,1.529-.664.558-.093,1.142-.06,1.692.109.55.167,1.065.478,1.455.904.392.425.652.953.756,1.494.019.096-.045.19-.141.209-.079.015-.156-.025-.191-.093v-.004c-.234-.448-.515-.845-.869-1.158-.351-.313-.768-.541-1.217-.681-.449-.14-.931-.191-1.41-.161-.481.029-.959.145-1.417.341l-.004.002c-.09.039-.195-.003-.233-.093-.032-.073-.009-.158.051-.206Z" fill="#171616"/>
  <path d="m52.964,78.119c-.081-.445-.176-.873-.336-1.27-.154-.397-.362-.765-.63-1.066-.268-.3-.595-.534-.967-.654-.372-.121-.785-.125-1.211-.028h-.002c-.096.022-.192-.038-.214-.134-.017-.076.017-.153.08-.191.212-.132.456-.221.712-.269.256-.043.527-.045.789.008.528.102.999.411,1.341.8.345.391.572.861.699,1.342.126.482.155.978.092,1.457-.013.098-.102.166-.2.153-.078-.01-.138-.07-.152-.144l-.002-.004Z" fill="#171616"/>
  <path d="m43.094,65.356c.256.8.451,1.594.656,2.376.2.782.406,1.553.635,2.308.235.753.488,1.495.8,2.202.31.707.664,1.388,1.097,2.006.848,1.247,2.017,2.239,3.431,2.802l.131.057c.044.018.09.031.134.047l.271.092c.091.029.18.066.273.088l.28.072.28.074c.093.025.19.037.285.056l.287.053c.096.017.191.038.289.046l.585.071c.196.022.394.023.592.039l.298.019h.299s.601.007.601.007h.016c.141.002.255.117.253.259-.002.127-.095.232-.217.25l-.615.096c-.103.015-.206.031-.309.044l-.312.025-.313.025c-.105.006-.209.019-.314.017l-.632.004c-.106.003-.212-.008-.317-.015l-.318-.023c-.106-.01-.213-.012-.318-.028l-.318-.047-.318-.049c-.106-.016-.21-.048-.315-.071l-.315-.076c-.052-.014-.105-.024-.158-.04l-.155-.05c-.832-.249-1.63-.65-2.346-1.163-.712-.52-1.339-1.153-1.863-1.849-.522-.699-.956-1.45-1.312-2.225-.355-.776-.649-1.57-.89-2.371-.247-.799-.444-1.605-.627-2.403-.179-.798-.344-1.591-.52-2.359l-.002-.007c-.084-.366.145-.732.511-.816.348-.079.694.125.802.457Z" fill="#171616"/>
  <path d="m43.4,65.128c.14.517.337,1.02.584,1.499.247.479.547.935.886,1.363.676.859,1.511,1.608,2.431,2.242,1.846,1.267,4.01,2.115,6.235,2.514.557.099,1.117.17,1.679.207l.422.021.421.008.42-.003c.14-.004.279-.011.419-.017,1.112-.069,2.213-.271,3.21-.695.497-.212.967-.476,1.388-.804.422-.326.785-.721,1.091-1.162.154-.221.283-.46.407-.704.057-.124.109-.252.164-.378.044-.131.096-.26.139-.393.167-.535.27-1.1.33-1.68v-.002c.012-.114.114-.197.227-.185.096.01.171.085.184.177.087.605.096,1.232.007,1.857-.023.156-.055.312-.084.469-.041.154-.08.31-.126.463l-.078.228c-.027.076-.051.153-.086.226-.067.147-.126.299-.206.44-.298.579-.706,1.107-1.184,1.556-.482.444-1.028.813-1.605,1.105-1.156.587-2.419.882-3.67.985-1.254.11-2.508.031-3.734-.17-1.226-.205-2.429-.536-3.586-.99-1.156-.457-2.27-1.035-3.299-1.754-1.028-.718-1.981-1.573-2.766-2.588-.779-1.014-1.39-2.194-1.688-3.465-.096-.407.157-.814.564-.909.398-.093.796.147.903.537l.002.003Z" fill="#171616"/>
  <path d="m39.491,54.499c-.028-.304-.055-.609-.06-.916-.006-.153-.008-.306-.01-.46,0-.153.007-.307.01-.461.022-.615.078-1.232.183-1.848l.039-.231.047-.23c.032-.153.061-.307.102-.459.04-.153.076-.306.119-.457l.139-.453c.199-.602.448-1.193.755-1.759.152-.284.323-.559.503-.828.182-.268.382-.526.59-.776.424-.494.906-.943,1.433-1.323.261-.194.539-.363.819-.522.285-.153.572-.297.871-.414.147-.062.299-.112.448-.167l.227-.071c.075-.024.152-.046.229-.065.304-.085.615-.142.925-.187.238-.034.459.132.493.369.028.193-.076.374-.242.454l-.009.004c-1.041.499-1.993,1.073-2.792,1.805-.804.724-1.459,1.586-1.981,2.543-.262.478-.49.98-.693,1.498-.2.519-.374,1.054-.527,1.6-.315,1.092-.527,2.229-.756,3.388l-.002.01c-.046.235-.275.389-.511.342-.194-.038-.331-.2-.348-.387Z" fill="#e0dbd3"/>
  <path d="m66.893,62.055c.528.328,1.005.759,1.4,1.262.392.506.699,1.084.901,1.698.41,1.229.419,2.58.046,3.839-.189.629-.481,1.237-.88,1.788-.203.274-.435.531-.697.762-.261.232-.552.439-.87.603-.317.166-.658.295-1.01.372-.352.076-.713.106-1.067.091-.709-.034-1.377-.24-1.96-.542-.361-.187-.501-.631-.315-.992.173-.333.565-.479.908-.352l.017.006c.471.174.941.285,1.392.28.225.001.446-.025.657-.078.212-.052.418-.129.612-.235.387-.212.746-.513,1.035-.895.296-.375.528-.818.697-1.289.173-.471.271-.975.307-1.483.037-.509-.005-1.024-.111-1.526-.111-.501-.291-.99-.552-1.441-.257-.454-.593-.869-.984-1.245l-.006-.006c-.156-.151-.161-.4-.01-.557.13-.134.336-.156.49-.06Z" fill="#171616"/>
  <path d="m59.233,63.307c.713,0,1.292-.425,1.292-.95s-.578-.95-1.292-.95-1.292.425-1.292.95.578.95,1.292.95Z" fill="#171616"/>
  <path d="m61.14,62.357c0,.277-.096.547-.236.754-.14.209-.317.364-.5.482-.369.233-.774.326-1.171.33-.396-.002-.803-.091-1.175-.324-.185-.117-.363-.273-.503-.484-.14-.208-.236-.481-.236-.76,0-.279.094-.552.234-.761.141-.212.318-.369.503-.487.374-.233.78-.324,1.178-.326.397.004.803.096,1.175.331.184.118.361.275.5.486.138.208.232.48.231.756Zm-1.229,0c-.002-.019-.007-.038-.031-.075-.024-.036-.07-.081-.135-.121-.13-.082-.319-.13-.51-.131-.191.002-.38.053-.508.136-.063.04-.109.085-.132.12-.023.036-.027.053-.029.071.002.017.004.036.027.073.022.036.068.082.132.123.129.084.318.136.51.138.192,0,.383-.049.514-.132.066-.04.111-.088.135-.125.025-.039.028-.059.028-.079Z" fill="#171616"/>
  <path d="m66.863,61.717c0,.416-.452.57-.725.57-.564,0-.841-.155-.841-.57s.345-.639.909-.639c.422,0,.657.223.657.639Z" fill="#171616"/>
  <path d="m67.325,61.717c.001.168-.049.362-.151.516-.101.155-.235.262-.363.337-.131.075-.262.121-.395.149-.067.014-.135.025-.208.028-.084.004-.123.001-.182,0-.111-.004-.227-.013-.356-.038-.127-.026-.272-.067-.424-.167-.075-.049-.15-.115-.212-.194-.063-.078-.109-.167-.141-.253-.031-.086-.048-.17-.056-.246-.008-.077-.01-.144-.004-.225.01-.156.061-.333.159-.483.097-.151.232-.266.366-.341.134-.076.267-.12.392-.147.126-.028.247-.04.362-.044l.087-.002c.031,0,.066.002.099.003.068.005.137.013.211.028.145.031.306.095.448.212.141.115.247.277.3.43.054.156.069.302.069.434Zm-.924,0c0-.054-.009-.096-.018-.118-.01-.022-.013-.02-.017-.024-.003-.003-.019-.012-.057-.02-.018-.004-.041-.007-.067-.008h-.042s-.054,0-.054,0c-.141.005-.268.036-.324.072-.029.017-.039.028-.043.035-.004.007-.01.015-.013.044-.002.012-.002.039,0,.055.001.016.004.025.004.027.003.003-.016-.02-.012-.014.004.005.041.022.096.033.055.012.126.019.201.022.094.003.113.003.168-.007.049-.01.096-.027.128-.045.033-.017.046-.034.046-.037,0-.002,0,.005,0-.014Z" fill="#171616"/>
  <path d="m63.622,67.388c-.027-.711-.105-1.42-.269-2.101-.165-.679-.409-1.336-.777-1.896-.37-.555-.861-1.003-1.44-1.243-.289-.118-.593-.197-.904-.222-.155-.013-.31-.017-.463-.006-.151.009-.309.032-.431.065-.315.086-.638-.099-.724-.414-.086-.315.099-.639.414-.724.028-.007.055-.013.082-.017l.018-.002c.235-.028.438-.028.648-.017.208.011.413.04.615.082.404.08.795.226,1.156.422.359.199.683.454.959.745.276.291.504.619.689.96.187.342.325.7.441,1.061l.08.272c.025.091.044.183.066.274.047.182.073.367.109.549.032.183.052.368.078.551.017.184.034.368.047.552.008.184.02.367.026.551l.007.549c.002.118-.093.215-.211.217-.117.001-.212-.09-.217-.206v-.005Z" fill="#171616"/>
  <path d="m63.622,67.392l-.025-.46-.018-.461-.011-.462c0-.155-.004-.309,0-.463.004-.31.013-.62.035-.932.024-.312.057-.625.108-.939.105-.627.271-1.268.634-1.875.09-.151.199-.296.319-.435.122-.138.261-.265.413-.38.151-.114.316-.213.488-.293.172-.079.349-.141.524-.19l.019-.005c.315-.087.64.099.726.413.086.315-.099.64-.413.726-.031.008-.065.015-.096.018-.246.025-.466.088-.668.199-.202.11-.386.272-.546.472-.163.199-.296.439-.41.694-.114.255-.206.528-.285.807-.152.562-.241,1.153-.299,1.747-.015.149-.022.299-.034.449l-.023.45-.01.451v.452s0,.004,0,.004c0,.118-.096.215-.214.215-.116,0-.209-.089-.215-.202Z" fill="#171616"/>
  <path d="m39.496,54.588c-.09-.321-.186-.644-.25-.973-.035-.164-.066-.33-.098-.495-.031-.166-.048-.334-.073-.502-.051-.335-.066-.675-.09-1.015-.006-.17-.007-.342-.007-.513,0-.086-.003-.171,0-.257l.012-.258.014-.258.007-.129.013-.129c.017-.172.039-.344.059-.516l.087-.514.023-.129.03-.128.06-.255c.168-.679.408-1.346.727-1.981l.123-.236c.042-.078.082-.158.131-.233l.139-.229c.047-.076.091-.153.144-.226l.154-.22c.051-.073.102-.146.16-.216l.168-.21.084-.105c.029-.034.06-.067.09-.101.48-.536,1.035-1.014,1.659-1.387.153-.097.319-.176.48-.262l.251-.112.126-.055c.042-.018.086-.032.129-.048.342-.133.703-.221,1.066-.284.368-.049.741-.07,1.114-.029.372.042.74.136,1.081.291.218.099.314.357.215.574-.081.177-.265.273-.449.25l-.03-.004c-.279-.035-.557-.032-.831-.005-.07.01-.138.021-.206.029-.068.009-.137.029-.204.043l-.102.022c-.034.009-.067.02-.101.029-.067.02-.134.039-.2.06-.132.051-.264.09-.392.153-.064.029-.129.055-.192.085l-.188.098c-.063.031-.124.067-.185.104l-.182.108-.175.121c-.059.04-.118.077-.173.123-.911.683-1.642,1.607-2.169,2.648-.265.521-.478,1.073-.649,1.642-.09.284-.155.576-.227.869-.028.148-.055.296-.086.445l-.023.111-.016.113-.033.226-.035.226c-.011.076-.016.152-.025.228l-.049.457c-.016.307-.05.615-.053.926-.004.156-.014.312-.015.468,0,.156,0,.313-.001.471-.005.158.002.315.007.473.002.159.007.317.005.478v.03c-.002.239-.198.431-.437.429-.198,0-.363-.134-.414-.315Z" fill="#171616"/>
  <path d="m55.344,43.773c.061-.772.378-1.544.892-2.179.514-.633,1.23-1.13,2.053-1.36.41-.115.848-.161,1.285-.121.436.042.872.169,1.256.389.383.221.71.526.949.872.239.347.398.729.475,1.115.039.194-.087.384-.283.422-.141.028-.279-.03-.359-.138l-.011-.015c-.197-.267-.399-.504-.623-.692-.223-.19-.461-.333-.712-.43-.502-.188-1.058-.191-1.602-.045-.544.148-1.066.447-1.511.853-.451.405-.815.919-1.129,1.511l-.007.013c-.093.175-.31.241-.485.149-.129-.069-.2-.208-.189-.345Z" fill="#171616"/>
  <path d="m38.51,60.41c-.723-.766-1.351-1.62-1.897-2.529-.547-.908-1.002-1.877-1.357-2.886-.355-1.008-.626-2.052-.793-3.118-.166-1.067-.216-2.156-.138-3.243.08-1.085.288-2.169.651-3.205.36-1.036.862-2.029,1.51-2.923.647-.894,1.431-1.694,2.329-2.345.898-.65,1.908-1.153,2.979-1.459,1.07-.307,2.198-.422,3.306-.326,1.108.095,2.195.392,3.195.854,1.001.462,1.917,1.082,2.729,1.802.407.359.789.744,1.147,1.147.18.2.352.408.52.617.084.105.165.212.247.318l.12.161.06.081.03.04.007.011s-.002-.003-.002-.004l-.009-.011c-.026-.031-.072-.064-.12-.079-.048-.016-.094-.016-.137-.007-.043.009-.084.029-.12.063-.037.033-.065.082-.076.121l-.004.014v.007s-.002.005,0-.001l.009-.049.019-.098.037-.196c.028-.131.053-.262.083-.392.116-.522.257-1.041.431-1.555.176-.514.383-1.022.645-1.514.262-.492.578-.971.987-1.401.203-.215.434-.414.691-.588.256-.174.546-.318.858-.415.312-.097.646-.141.976-.126.33.015.652.088.95.202.297.115.569.268.815.445.247.176.469.375.67.585.403.422.727.891.999,1.376.17.302.062.685-.24.854-.302.17-.684.062-.854-.24h0c-.232-.415-.501-.8-.811-1.123-.309-.324-.661-.585-1.03-.727-.369-.143-.745-.161-1.106-.049-.362.111-.71.351-1.012.67-.303.318-.564.706-.786,1.123-.223.418-.407.867-.565,1.329-.156.463-.286.94-.394,1.425-.028.121-.052.243-.078.365l-.035.184-.017.092-.009.046-.011.053c-.004.02-.01.04-.016.061-.047.164-.146.326-.278.445-.132.12-.292.201-.46.238-.168.037-.348.03-.519-.025-.17-.055-.327-.161-.437-.29-.014-.016-.027-.032-.04-.049l-.025-.032-.028-.037-.056-.074-.111-.148c-.077-.096-.152-.195-.23-.291-.156-.191-.315-.38-.481-.561-.33-.365-.679-.711-1.048-1.031-.735-.642-1.552-1.182-2.428-1.577-.875-.395-1.81-.644-2.758-.712-.948-.071-1.905.039-2.813.312-.91.273-1.768.714-2.534,1.281-.768.567-1.44,1.263-1.994,2.044-.555.782-.996,1.647-1.31,2.559-.315.913-.506,1.87-.584,2.84-.076.971-.033,1.954.101,2.928.138.974.374,1.938.69,2.879.316.942.696,1.865,1.109,2.783.413.918.87,1.822,1.321,2.751v.002c.07.144.01.317-.133.387-.117.057-.253.028-.337-.061Z" fill="#171616"/>
  <path d="m42.587,58.607c.134-.419.398-.796.709-1.12.314-.323.682-.594,1.076-.812.792-.435,1.682-.668,2.578-.721.896-.052,1.813.082,2.648.438.416.178.81.413,1.153.704.084.077.167.152.247.229.076.084.152.164.223.25.069.089.134.179.196.268.057.096.113.191.161.29,0,.002,0,.005-.002.005,0,0-.002,0-.004,0-.105-.039-.203-.082-.3-.123-.099-.038-.197-.074-.292-.113-.099-.032-.194-.067-.288-.099l-.286-.088c-.38-.109-.755-.188-1.13-.245-.75-.114-1.5-.144-2.251-.11-.751.037-1.501.141-2.24.327-.37.094-.738.208-1.102.356-.366.148-.724.33-1.096.564Z" fill="#e0dbd3"/>
  <path d="m42.307,58.448c.336-.899.978-1.71,1.799-2.283.821-.578,1.813-.913,2.82-.976,1.006-.066,2.038.142,2.925.629.883.483,1.621,1.254,1.97,2.163.058.152-.018.324-.171.383-.111.043-.233.013-.313-.065l-.007-.007c-.308-.302-.623-.569-.961-.791-.337-.223-.693-.402-1.06-.543-.735-.28-1.521-.402-2.303-.365-.782.039-1.554.247-2.258.613-.351.185-.687.407-1,.669-.314.262-.603.561-.881.89l-.006.007c-.117.137-.322.155-.46.038-.108-.092-.141-.239-.095-.364Z" fill="#171616"/>
  <path d="m47.726,59.32c.023-.099.05-.2.088-.295.019-.046.04-.093.061-.139l.033-.069.037-.065c.05-.087.102-.176.164-.254l.092-.12c.031-.04.067-.075.1-.114.272-.299.61-.54.992-.709.38-.17.813-.259,1.246-.215.215.019.428.076.625.161.097.048.193.096.28.156.087.064.167.134.241.211.12.126.117.324-.009.445-.041.04-.091.066-.144.078l-.064.015c-.09.022-.172.037-.249.048-.078.013-.153.035-.224.045-.071.012-.14.037-.207.049-.016.004-.033.006-.049.01l-.049.016-.097.026c-.255.073-.498.153-.751.252-.252.099-.505.223-.764.359-.129.069-.261.141-.394.218-.07.037-.131.08-.203.118-.069.04-.136.083-.214.123l-.054.028c-.167.086-.371.021-.457-.146-.04-.073-.048-.156-.03-.232Z" fill="#171616"/>
  <path d="m53.569,74.167c-1.182-.295-1.46.582-.73,1.503-2.091-2.091-3.087-.731-3.087-.731,0,0-2.639-2.151-4.178-.613-2.08-3.239-2.602-6.344-2.602-6.344,0,0,6.618,4.377,10.597,6.184Z" fill="#171616"/>
  <path d="m19.742,32.658c-.704.156-.678,1.147-.13,1.929-.704.313-2.215-2.372-2.215-2.372l2.346.443Z" fill="#171616"/>
  <path d="m22.922,37.246c-1.043.078-.834,1.173-.417,1.747-1.668-.547-2.112-2.502-2.112-2.502l2.529.756Z" fill="#171616"/>
  <path d="m29.253,35.957c-1.536-.717-1.297-2.103-2.423-2.948-1.565-1.174-2.878-1.718-3.952-2.865-1.074-1.147-1.698-3.287-4.651-4.381-2.765-1.024-2.073-2.509-4.532-3.354-2.23-.767-1.403-1.746-4.814-2.919-3.41-1.173-2.914-1.673-6.452-3.149-1.872-.781-2.152,1.703-.435,2.893,2.087.345,4.378,3.485,6.178,3.325,0,0,2.758,3.838,4.842,3.838.493,1.655,2.205,3.021,3.005,3.542.732,1.109.82,1.933,2.965,3.139,1.33,2.676,3.085,4.709,3.085,4.709.333.718.81,1.354,1.547,1.694l.083.091c-.61,2.809,1.715,3.674,3.266,2.7.937-.588,2.425-1.704,3.157-2.831,1.372-2.112.378-2.902-.871-3.485Z" fill="#b8b3ad"/>
  <path d="m5.228,19.669l-.053.052c-.016.016-.032.03-.048.044-.032.028-.064.055-.097.081-.066.053-.133.102-.204.147-.14.091-.289.173-.446.239-.313.134-.66.217-1.016.23-.356.015-.718-.037-1.057-.148-.086-.026-.167-.06-.25-.091-.08-.036-.163-.069-.24-.111-.078-.04-.156-.08-.229-.126l-.112-.067c-.037-.025-.076-.049-.112-.074-.594-.406-1.068-1.023-1.268-1.77-.098-.374-.139-.785-.026-1.233.058-.222.161-.457.334-.666.17-.21.416-.381.672-.469.257-.091.51-.105.735-.087.225.019.425.071.608.134.046.016.09.034.135.051l.108.045.207.087c.138.06.277.115.414.178.551.243,1.1.511,1.636.807.268.148.529.304.783.457.252.153.496.302.736.437.478.274.972.497,1.494.706.527.21,1.047.371,1.645.597.579.226,1.165.493,1.723.875.278.188.546.413.777.635.234.224.422.425.602.575.09.077.179.143.274.205.094.062.194.119.302.171.053.027.108.052.164.076.055.025.114.048.173.071.058.024.12.044.18.067l.222.081c.312.117.627.262.931.448.301.188.591.42.832.672.244.25.441.507.618.727.178.222.338.408.512.571.174.162.359.304.567.43.208.125.433.238.673.336.217.087.552.209.84.342.295.135.584.289.863.462.559.345,1.075.772,1.517,1.249.444.475.817.997,1.148,1.49.167.247.325.485.482.7.078.108.157.21.235.302.039.048.078.089.117.133l.135.137c.362.362.786.68,1.252.991.466.312.969.619,1.472.954.251.167.503.34.75.52l.185.137.046.034.057.045c.038.031.078.061.114.094.149.128.286.273.405.423.24.301.407.618.544.894.137.277.249.518.369.71.12.194.245.34.398.464.076.062.159.12.252.171.045.028.094.049.143.075.072.034.144.069.217.106.291.149.594.32.893.57.149.126.296.272.427.448.131.175.244.38.32.6.076.22.113.45.117.668.004.218-.021.425-.061.618-.086.381-.224.713-.38,1.013-.078.15-.161.294-.247.433-.045.069-.084.137-.134.207l-.146.21c-.201.27-.416.514-.637.744-.445.457-.918.859-1.408,1.232-.245.187-.494.366-.75.537-.128.086-.257.17-.389.253l-.05.031-.061.037c-.04.025-.082.046-.124.069-.084.044-.169.086-.256.123-.348.15-.724.238-1.108.256-.383.019-.779-.034-1.153-.173-.374-.137-.728-.363-1.007-.662-.282-.296-.483-.657-.603-1.023-.12-.368-.164-.739-.161-1.093.002-.355.051-.696.123-1.022.084-.38.461-.62.842-.536.377.084.617.455.538.832v.003c-.103.492-.108.979.025,1.357.132.377.389.635.744.759.353.125.791.098,1.167-.072.047-.02.093-.044.139-.069.022-.014.046-.025.067-.039l.033-.02.043-.028c.116-.074.231-.152.345-.23.229-.157.454-.323.674-.493.439-.341.856-.706,1.224-1.093.182-.194.354-.392.501-.593l.104-.151c.035-.049.069-.109.103-.163.067-.111.129-.222.185-.332.114-.22.193-.437.235-.628.018-.094.026-.18.023-.255-.002-.075-.014-.137-.035-.194s-.051-.111-.096-.17c-.045-.059-.106-.121-.182-.184-.152-.126-.361-.248-.593-.362-.058-.028-.118-.057-.179-.085-.081-.04-.165-.078-.247-.126-.164-.09-.325-.197-.476-.319-.305-.242-.562-.551-.75-.854-.191-.304-.325-.597-.449-.844-.123-.248-.238-.449-.365-.606-.064-.079-.129-.148-.203-.21-.017-.016-.037-.03-.056-.046l-.029-.023-.043-.031-.169-.123c-.227-.164-.458-.322-.696-.478-.474-.312-.972-.614-1.482-.951-.255-.17-.51-.351-.763-.547-.253-.196-.499-.413-.732-.645l-.173-.177c-.059-.065-.12-.131-.173-.197-.111-.132-.21-.262-.304-.391-.188-.259-.353-.508-.514-.747-.321-.479-.635-.913-.991-1.295-.354-.382-.749-.709-1.187-.98-.219-.135-.447-.258-.685-.367-.244-.112-.461-.188-.788-.321-.301-.126-.602-.275-.895-.454-.292-.179-.573-.395-.826-.635-.253-.239-.472-.501-.658-.738-.189-.238-.349-.447-.514-.617-.163-.173-.335-.309-.528-.433-.195-.122-.413-.226-.65-.315l-.191-.07c-.077-.029-.154-.055-.232-.087-.078-.031-.155-.062-.233-.098-.078-.034-.155-.071-.233-.111-.309-.153-.622-.36-.887-.589-.268-.229-.478-.46-.667-.641-.191-.185-.372-.339-.579-.481-.407-.284-.892-.514-1.402-.717-.496-.194-1.092-.39-1.652-.62-.564-.232-1.137-.498-1.673-.812-.269-.155-.523-.315-.771-.469-.246-.152-.486-.3-.729-.437-.487-.277-.988-.528-1.507-.763-.128-.06-.261-.115-.392-.173l-.197-.086-.094-.041c-.024-.009-.048-.02-.071-.028-.093-.035-.179-.055-.246-.062-.067-.007-.113,0-.133.006-.021.007-.025.008-.041.025-.015.016-.039.054-.055.114-.036.121-.035.314.015.505.049.193.14.389.259.569.119.181.267.348.438.498l.066.055.072.054c.047.037.096.069.146.102.049.034.1.06.149.093.051.026.102.057.154.081.104.052.21.092.319.129.109.034.221.061.336.079.229.037.472.037.718.002.123-.019.249-.042.372-.078.061-.018.123-.037.185-.058.031-.01.061-.022.09-.033l.043-.017c.013-.004.03-.013.036-.013l.203.01c.153.008.271.139.262.292-.008.076-.04.142-.088.188Z" fill="#171616"/>
  <path d="m9.664,22.608c-.512.281-1.071.512-1.708.599-.317.045-.655.044-.992-.017-.336-.061-.665-.184-.955-.345-.291-.161-.547-.354-.78-.554-.232-.201-.442-.407-.64-.617-.397-.417-.758-.832-1.111-1.254h-.002c-.2-.24-.169-.596.07-.796.214-.179.52-.173.726.001.441.372.839.784,1.22,1.177.383.391.747.762,1.128,1.017.191.129.386.222.596.292.209.071.438.1.681.111.242.007.499-.007.759-.043.262-.033.527-.085.798-.135h.01c.164-.031.322.078.352.242.025.132-.041.259-.152.32Z" fill="#171616"/>
  <path d="m14.051,26.189c-.273.156-.564.289-.88.389-.317.092-.659.151-1.015.138-.356-.008-.721-.098-1.051-.246-.331-.149-.621-.358-.874-.582-.507-.451-.874-.962-1.221-1.434-.347-.475-.667-.923-1.02-1.292l-.007-.008c-.215-.225-.206-.582.019-.797.201-.192.508-.206.724-.046.274.202.506.439.718.675.105.12.204.241.3.362.096.121.186.243.276.362.18.238.345.478.516.697.168.223.338.431.514.615.176.184.361.341.558.462.197.121.412.201.646.25.234.046.489.056.754.035.266-.022.537-.078.817-.136l.013-.003c.164-.034.324.07.358.234.028.132-.034.261-.145.324Z" fill="#171616"/>
  <path d="m18.718,29.549c-.57.283-1.181.501-1.843.619-.332.058-.676.088-1.038.062-.36-.025-.736-.11-1.09-.279-.355-.167-.669-.426-.915-.712-.245-.29-.429-.599-.574-.904-.074-.152-.139-.301-.201-.449l-.171-.428c-.106-.279-.215-.528-.326-.733l-.019-.034c-.148-.273-.046-.614.227-.762.242-.131.538-.066.705.141.244.301.396.614.535.9.135.29.253.564.376.813.031.063.064.123.095.182.03.061.064.115.096.173.034.055.067.108.102.16.037.048.07.102.109.145.149.185.312.337.507.449.195.113.422.191.674.239.25.052.526.057.806.057.564-.013,1.155-.103,1.754-.208h.002c.165-.03.321.081.351.245.025.136-.046.267-.163.324Z" fill="#171616"/>
  <path d="m21.526,32.906c-.561.256-1.167.454-1.838.5-.336.023-.688-.004-1.04-.093-.351-.09-.688-.256-.98-.464-.294-.207-.537-.453-.75-.699-.209-.25-.398-.497-.569-.743-.345-.489-.656-.946-.997-1.367l-.005-.005c-.197-.241-.16-.597.081-.793.218-.176.526-.165.729.015.487.431.869.943,1.211,1.42.174.237.334.47.504.676.166.209.335.396.516.546.181.152.373.27.589.357.216.087.458.135.715.163.518.048,1.084-.013,1.659-.089h.007c.166-.022.318.093.34.259.019.135-.056.262-.173.315Z" fill="#171616"/>
  <path d="m24.333,36.749c-.602.246-1.257.419-1.97.41-.356-.004-.725-.068-1.08-.199-.355-.131-.687-.336-.968-.581-.283-.244-.516-.525-.712-.81-.193-.289-.361-.579-.506-.869-.294-.579-.528-1.144-.78-1.671l-.003-.007c-.134-.281-.014-.617.267-.75.254-.121.554-.034.708.192.377.554.647,1.132.924,1.663.14.264.274.522.426.753.148.235.308.445.484.623.177.179.372.324.591.438.219.115.467.188.732.235.266.044.55.06.84.054l.22-.005c.074-.006.147-.012.222-.016.075-.003.149-.011.224-.02l.226-.021h.011c.166-.017.313.106.329.272.012.137-.067.26-.187.309Z" fill="#171616"/>
  <path d="m26.268,40.026c-.528.25-1.113.418-1.753.441-.319.009-.653-.025-.981-.115-.329-.088-.649-.237-.935-.433-.286-.195-.535-.435-.745-.692-.208-.259-.379-.535-.516-.815-.275-.562-.442-1.137-.538-1.701-.062-.362.182-.705.543-.767.315-.054.617.124.729.41l.002.007c.194.493.368.967.584,1.388.213.422.465.779.773,1.042.306.265.691.434,1.15.516.228.04.472.061.722.063.252.008.511-.014.777-.025h.018c.197-.009.364.144.372.342.008.149-.076.28-.203.339Z" fill="#171616"/>
  <path d="m18.05,29.845c-.869.326-.587.978-.304,1.369-1.282-.196-1.716-1.39-1.716-1.39l2.02.022Z" fill="#171616"/>
  <path d="m25.264,40.39c-.882.171-1.133.8-.619,1.437-.906-.049-1.585-.765-1.585-.765l.098-1.396,2.106.724Z" fill="#171616"/>
  <path d="m59.094,46.62c-1.167-.01-2.073,1.612-2.31,3.873-.024.227.086.448.265.543.698.372,1.407.746,1.975,1.045.494.26.546,1.056.091,1.38l-1.664,1.183c-.182.13-.256.395-.177.632.212.638.474,1.197.772,1.642.09.134.233.207.377.199.553-.033,1.015-.057,1.207-.068.063-.003.127.009.186.037l.682.318c.175.081.375.03.495-.134.724-.991,1.15-2.814,1.042-4.905-.162-3.16-1.479-5.731-2.942-5.744Z" fill="#171616"/>
  <path d="m60.668,57.923c-.125,0-.251-.027-.371-.083l-.663-.309c-.204.01-.649.034-1.18.066-.32.019-.62-.135-.806-.411-.324-.484-.603-1.076-.829-1.759-.146-.44,0-.923.355-1.175l1.664-1.183c.09-.064.116-.193.109-.291-.007-.098-.048-.221-.146-.271-.724-.381-1.39-.733-1.977-1.046-.354-.188-.561-.597-.517-1.018.274-2.617,1.363-4.303,2.777-4.303h.016c.895.007,1.742.702,2.383,1.953.586,1.144.954,2.652,1.036,4.246.11,2.142-.314,4.091-1.134,5.214-.176.238-.442.369-.716.369Zm-1.017-1.355c.126,0,.254.028.37.082l.619.288c.662-.947,1.013-2.682.917-4.55-.16-3.104-1.428-5.278-2.467-5.287h-.007c-.847,0-1.612,1.445-1.821,3.441-.004.039.012.067.019.072.581.309,1.244.66,1.967,1.041.38.2.626.596.658,1.058.031.463-.161.89-.512,1.139l-1.659,1.18c-.007.011-.019.049-.004.093.196.592.433,1.1.705,1.509.537-.032.983-.056,1.171-.066.014,0,.028,0,.043,0Z" fill="#171616"/>
  <path d="m47.531,84.053c.265-.067.522-.114.769-.173.247-.058.484-.123.707-.212.223-.088.434-.195.641-.321.209-.124.411-.273.638-.426l.003-.002c.061-.041.145-.025.187.037.025.038.029.085.014.125-.106.269-.282.509-.499.712-.217.202-.482.359-.762.461-.28.103-.572.156-.857.166-.286.01-.567-.014-.839-.08-.079-.019-.128-.099-.108-.178.013-.055.056-.096.107-.108h0Z" fill="#171616"/>
  <path d="m30.492,8.537c.481,3.661-1.646,4.077-1.73,6.309-.057,1.502,1.081,2.867,1.331,4.19.503,2.668-3.931,3.204-3.775-.889-2.828,7.965,4.473,10.81,9.22,9.003,4.747-1.807,5.436-5.754,4.422-8.499-1.215-3.29-5.182-4.157-4.458-6.862-1.688.846-1.443,1.865-1.329,2.827.235,1.975-2.485,1.665-2.513-.764-.017-1.424,1.35-4.021-1.167-5.317Z" fill="#f2f2f2"/>
  <path d="m31.493,23.829c-.174-.244-.305-.531-.379-.839-.075-.309-.088-.635-.052-.948.037-.312.117-.611.217-.886.099-.277.217-.535.334-.781.235-.493.471-.938.62-1.384.153-.445.209-.891.162-1.397v-.01c-.015-.154.099-.29.253-.304.112-.01.215.047.267.138.151.261.25.56.296.871.046.311.032.631-.021.934-.108.611-.356,1.144-.589,1.626-.235.484-.461.927-.581,1.368-.061.221-.097.44-.101.669-.004.114.004.231.015.35.008.059.013.12.025.18.01.061.023.121.032.185l.004.028c.022.153-.084.294-.236.316-.107.015-.209-.032-.267-.114Z" fill="#171616"/>
  <path d="m32.993,17.455c.117.287.27.534.461.762.19.229.413.441.659.652.487.426,1.061.837,1.593,1.414.264.289.516.633.691,1.04.175.406.258.872.219,1.308-.035.437-.169.835-.343,1.187-.046.087-.091.173-.139.258-.053.081-.104.161-.158.24-.027.039-.052.08-.082.117l-.088.111c-.06.073-.119.145-.181.215-.128.143-.347.155-.49.027-.103-.093-.138-.233-.101-.357l.006-.021c.097-.327.214-.637.272-.943.065-.303.099-.594.078-.857-.021-.264-.087-.498-.207-.727-.116-.229-.285-.455-.49-.683-.411-.457-.95-.909-1.445-1.479-.245-.286-.481-.607-.658-.975-.176-.366-.287-.782-.274-1.188.007-.191.167-.341.358-.335.14.004.259.093.309.215l.007.018Z" fill="#171616"/>
  <path d="m30.801,8.497c.088.386.147.783.167,1.191.012.203.011.41,0,.617-.006.103-.017.207-.027.312-.016.103-.027.208-.049.311-.074.415-.21.824-.382,1.203-.087.189-.179.372-.274.547l-.281.504c-.18.324-.332.624-.422.922-.046.149-.078.298-.099.448-.016.15-.026.311-.016.457.023.597.288,1.236.602,1.916.155.342.327.695.474,1.085.037.097.071.2.106.3.032.104.063.21.093.316l.037.167c.011.057.026.108.032.171l.022.183c.003.031.008.061.01.092l.002.095v.19c-.002.064-.01.129-.016.194l-.01.096c-.004.032-.013.065-.019.097-.014.065-.029.129-.045.193-.08.255-.197.502-.36.719-.165.215-.365.396-.587.538-.224.137-.465.238-.713.297-.249.056-.502.072-.753.055-.25-.022-.493-.085-.724-.176-.455-.195-.845-.524-1.095-.918-.256-.391-.395-.824-.454-1.245-.019-.105-.023-.211-.03-.315l-.009-.156.003-.155c0-.207.027-.409.052-.609.019-.154.16-.263.314-.244.129.016.227.118.244.241l.003.024c.012.091.023.181.033.271.007.09.03.177.044.265l.022.131.033.126c.022.084.041.168.072.247.105.323.26.612.458.836.195.228.442.374.697.454.131.034.262.053.394.052.132-.005.261-.024.382-.063.12-.043.231-.098.328-.167.094-.073.172-.159.237-.249.062-.094.102-.199.133-.308.005-.06.027-.113.025-.176l.007-.092-.005-.096v-.048c-.002-.016-.007-.034-.009-.05l-.016-.1c-.002-.031-.016-.073-.024-.109l-.026-.112-.072-.232c-.03-.08-.056-.159-.088-.239-.128-.322-.283-.659-.443-1.013-.161-.354-.318-.728-.448-1.134-.129-.405-.22-.85-.223-1.316-.006-.236.02-.458.057-.685.042-.226.102-.448.18-.66.161-.424.382-.796.598-1.123.217-.33.423-.626.596-.928.086-.152.163-.304.233-.46.032-.079.068-.156.095-.237.031-.079.058-.161.084-.242.104-.327.164-.674.201-1.029.034-.357.04-.723.031-1.094v-.005c-.004-.173.132-.316.306-.32.152-.005.28.1.312.243Z" fill="#171616"/>
  <path d="m35.641,12.07c-.055.042-.111.083-.167.122l-.083.06-.076.065c-.049.044-.104.083-.151.127l-.135.134c-.082.093-.158.186-.216.282-.06.096-.102.194-.134.292-.062.197-.066.41-.041.655.011.121.034.253.058.389l.037.214.019.111.004.028.005.035.008.07c.026.185.023.39-.009.602-.033.212-.114.44-.251.649-.139.208-.343.389-.573.5-.229.113-.477.163-.71.162-.235,0-.456-.046-.659-.121-.203-.076-.389-.179-.555-.305-.327-.253-.581-.579-.742-.931-.164-.351-.253-.721-.279-1.081l-.011-.268c.001-.093.004-.188.011-.274.013-.176.039-.339.066-.493.054-.312.121-.598.18-.877.059-.279.115-.548.149-.809.01-.066.019-.131.024-.195.008-.065.012-.129.016-.192.006-.064.005-.126.008-.188,0-.062,0-.123-.003-.185-.011-.243-.052-.475-.129-.694-.078-.22-.2-.427-.361-.622-.078-.099-.17-.192-.268-.281-.051-.043-.097-.092-.151-.133-.054-.042-.108-.084-.161-.128l-.02-.016c-.12-.099-.137-.277-.038-.398.078-.094.205-.125.314-.085.075.027.149.056.223.086.075.03.147.067.221.103.144.076.286.163.422.265.27.203.516.466.695.776.18.308.296.65.36.989.063.34.073.676.063.999-.013.324-.049.635-.093.935-.043.299-.093.589-.13.857-.019.134-.031.264-.039.381-.005.06-.004.113-.005.166l.01.172c.021.226.071.436.155.617.04.092.092.173.146.249.055.076.12.138.185.195.134.105.288.176.41.179.06.003.108-.003.144-.015.036-.013.063-.028.091-.061.028-.032.062-.082.081-.159.017-.077.034-.168.029-.275v-.059l-.002-.027-.007-.107-.016-.223c-.009-.156-.018-.316-.014-.489l.004-.129c.003-.044.007-.089.012-.134.006-.087.024-.18.04-.271.016-.09.047-.182.072-.273.035-.089.069-.179.111-.264.172-.344.434-.616.71-.813.277-.201.571-.332.864-.445.161-.062.342.018.404.179.052.134.005.281-.104.363l-.021.015Z" fill="#171616"/>
  <path d="m26.611,18.253c-.201.707-.361,1.419-.437,2.135-.074.715-.057,1.429.076,2.112l.01.064.016.063.032.126.063.251c.049.164.111.325.164.487l.105.233.052.117c.016.039.034.078.057.114l.125.222.062.111c.022.036.048.07.072.105l.144.209.036.052.04.049.081.098.161.195.178.181c.112.126.247.232.371.345.061.058.132.106.2.158l.204.153c.562.384,1.196.671,1.858.866.163.057.334.089.502.132.084.023.17.035.255.052l.256.047c.173.022.345.046.517.062l.26.016.13.009c.043.002.087.001.13.002.695.016,1.391-.061,2.061-.218.085-.016.166-.044.249-.066l.248-.07.242-.085c.081-.029.162-.054.243-.09.162-.068.327-.131.484-.208l.238-.11.232-.12.116-.06.113-.065.225-.13c.144-.095.293-.182.43-.285.282-.196.543-.416.787-.65.059-.06.123-.116.179-.179l.171-.185c.107-.129.216-.257.312-.394.196-.271.371-.556.516-.857.288-.602.463-1.257.521-1.929.057-.672-.002-1.359-.173-2.019-.043-.165-.091-.33-.148-.487-.03-.078-.058-.157-.089-.235l-.102-.23c-.145-.304-.321-.597-.524-.878-.403-.565-.903-1.085-1.439-1.601-.268-.258-.54-.522-.81-.8-.269-.28-.538-.574-.772-.913-.229-.342-.429-.733-.509-1.165-.078-.431-.034-.875.097-1.266.049-.147.208-.226.356-.177.135.046.213.183.187.319v.003c-.064.335-.056.662.034.964.088.303.263.581.478.843.437.525,1.023.978,1.598,1.47.576.492,1.167,1.017,1.671,1.652.251.317.481.659.676,1.026l.139.279c.043.095.083.191.124.287.078.192.146.385.207.582.238.785.339,1.614.291,2.441-.048.826-.247,1.651-.6,2.41-.177.378-.388.741-.631,1.079-.12.171-.253.33-.385.491l-.209.23c-.069.078-.146.146-.218.22-.295.289-.612.553-.947.786-.164.123-.339.225-.51.336l-.263.152-.132.076-.134.069-.269.138c-.09.043-.182.084-.274.126-.182.086-.368.156-.553.231-.09.039-.19.069-.286.103l-.291.099-.295.081c-.099.025-.196.057-.296.076-.793.181-1.606.244-2.412.213-.05-.002-.101-.002-.151-.006l-.151-.013-.302-.026c-.2-.023-.4-.055-.599-.084l-.297-.061c-.099-.021-.199-.038-.296-.067-.195-.055-.393-.098-.584-.167-.77-.256-1.51-.62-2.172-1.109l-.241-.193c-.08-.065-.162-.126-.236-.2-.149-.143-.305-.277-.439-.437l-.206-.232c-.063-.081-.125-.165-.187-.248l-.093-.124-.046-.062-.041-.066-.163-.264c-.027-.044-.055-.087-.08-.132l-.069-.138-.138-.277c-.025-.046-.043-.093-.062-.141l-.056-.144-.111-.287c-.056-.197-.118-.392-.167-.59l-.057-.3-.028-.149-.014-.075-.007-.076-.03-.301-.015-.15-.007-.075v-.076c-.003-.2-.012-.401-.006-.599l.04-.594.087-.584c.14-.773.374-1.516.659-2.23.063-.16.245-.238.405-.174.15.06.227.222.185.374l-.002.002Z" fill="#171616"/>
  <path d="m21.493,51.152c.494-.165.977-.378,1.434-.647.458-.266.892-.581,1.3-.931.407-.351.788-.738,1.139-1.152.176-.207.343-.421.502-.642.159-.219.312-.45.443-.676l.004-.007c.053-.093.172-.124.264-.071.088.051.12.16.078.25-.125.267-.262.51-.409.756-.146.244-.303.481-.468.713-.331.463-.697.904-1.1,1.313-.404.409-.843.788-1.321,1.122-.475.336-.993.62-1.537.853-.239.102-.516-.008-.618-.247-.102-.239.008-.516.247-.618.012-.005.023-.01.035-.014h.006Z" fill="#3d3d3d"/>
  <path d="m22.935,60.203c.422-.298.822-.644,1.194-1.029.365-.391.711-.809,1.03-1.25.316-.443.613-.904.887-1.38.273-.475.531-.967.752-1.462l.002-.006c.043-.098.158-.141.256-.098.093.041.136.146.104.241-.189.54-.407,1.055-.648,1.568-.241.511-.507,1.012-.799,1.502-.294.487-.622.96-.981,1.413-.367.449-.776.872-1.235,1.255-.2.167-.497.14-.663-.06-.167-.2-.14-.497.06-.663.01-.008.019-.016.029-.022l.012-.009Z" fill="#3d3d3d"/>
  <path d="m22.303,61.864c.25-.168.492-.378.723-.609.23-.232.453-.481.662-.747.422-.53.805-1.106,1.165-1.699.358-.595.692-1.209,1.006-1.836.312-.626.611-1.266.877-1.908l.002-.005c.055-.132.206-.194.337-.14.124.052.187.19.147.316-.217.688-.46,1.355-.724,2.023-.264.666-.551,1.324-.868,1.973-.319.648-.667,1.286-1.076,1.904-.202.309-.426.611-.67.903-.246.292-.515.575-.832.832l-.004.003c-.269.218-.664.177-.883-.092-.218-.269-.177-.664.092-.883.015-.012.031-.024.046-.034Z" fill="#3d3d3d"/>
  <path d="m47.531,79.324s-2.338,1.539-3.451,1.539c1.334,1.334,2.298,1.216,2.298,1.216,0,0-2.548,1.933-1.745,4.248,5.807.16,6.19-.049,8.066-1.926.973.973,4.492-2.748,4.762-5.362-1.437,2.809-6.816,1.895-9.931.285Z" fill="#171616"/>
  <path d="m45.256,85.885c.598.036,1.193.011,1.771-.095.145-.025.288-.058.43-.094l.212-.057.209-.065c.277-.094.549-.202.81-.333.52-.264,1.011-.59,1.454-.98.451-.381.851-.825,1.244-1.283h.002c.035-.042.096-.047.137-.012.036.031.043.082.022.121-.149.27-.315.533-.504.78-.092.125-.194.243-.293.364-.106.113-.209.231-.322.34-.223.219-.462.426-.721.606-.257.182-.528.347-.812.484-.284.139-.578.256-.882.343l-.228.062-.23.054c-.155.029-.31.055-.466.073-.624.073-1.258.044-1.863-.095-.058-.014-.094-.071-.081-.129.011-.053.059-.087.111-.084Z" fill="#3d3d3d"/>
  <path d="m45.052,81.06c.107.034.205.078.306.115.102.031.199.074.301.099.05.014.099.03.149.045l.15.035.075.018.076.013c.05.008.1.019.15.025.201.029.403.036.608.033.102-.002.205-.007.31-.015.103-.009.212-.023.312-.035l.017-.002c.054-.006.102.032.108.086.004.034-.01.066-.035.087-.198.161-.424.246-.662.296-.238.047-.485.052-.724.014-.061-.007-.119-.024-.178-.036l-.088-.021-.086-.029c-.057-.019-.114-.039-.17-.059-.055-.026-.109-.051-.162-.077l-.08-.04-.076-.048c-.05-.032-.101-.063-.149-.096-.095-.07-.183-.149-.268-.229-.043-.042-.045-.111-.003-.154.029-.031.072-.04.111-.028l.01.003Z" fill="#3d3d3d"/>
  <path d="m53.378,84.302c.222-.194.445-.37.637-.579.102-.097.188-.21.282-.313.045-.054.085-.111.129-.166.022-.028.044-.054.064-.083l.06-.087c.162-.228.307-.47.439-.722.134-.249.254-.513.367-.777l.003-.007c.022-.05.079-.072.129-.051.037.015.058.051.059.087.004.163-.017.315-.046.469-.016.075-.034.152-.055.227-.023.074-.046.149-.073.222-.106.293-.256.571-.442.824l-.069.096c-.024.032-.05.061-.075.091-.051.059-.101.12-.155.177-.112.11-.221.222-.348.315-.241.2-.519.35-.804.464-.055.023-.118-.004-.141-.06-.017-.044-.005-.092.029-.122l.008-.005Z" fill="#3d3d3d"/>
  <path d="m32.626,34.109c2.589-1.471,2.851-4.754,5.464-4.509,2.384.223,1.268,2.721.05,3.199" fill="#171616"/>
  <path d="m32.627,34.931c-.286,0-.564-.149-.715-.416-.224-.395-.086-.897.309-1.121.946-.537,1.554-1.393,2.142-2.219.86-1.209,1.833-2.579,3.805-2.395,1.724.161,2.063,1.264,2.129,1.73.178,1.26-.833,2.651-1.856,3.053-.423.166-.9-.043-1.066-.465-.166-.423.043-.9.465-1.066.43-.168.886-.881.828-1.292-.025-.176-.245-.285-.654-.324-.984-.092-1.444.49-2.312,1.711-.659.927-1.407,1.978-2.669,2.695-.129.074-.268.108-.406.108Z" fill="#171616"/>
  <path d="m38.727,31.363c2.064.226,3.345-.308,4.572-.909,2.635-1.289,3.784,3.255-.837,3.009" fill="#171616"/>
  <path d="m38.757,31.082c.98-.035,1.906-.172,2.769-.492l.162-.06.161-.066c.108-.043.215-.09.321-.138.213-.098.428-.2.643-.309.111-.057.204-.105.355-.175.141-.061.288-.117.446-.158.312-.08.662-.108,1.013-.037.351.067.691.245.954.496.264.251.446.572.54.912.09.34.091.701.003,1.036-.087.335-.262.639-.484.88-.111.121-.233.226-.362.316-.129.09-.262.169-.398.231-.272.129-.553.203-.829.25-.276.044-.55.056-.818.045-.134-.006-.266-.017-.397-.032-.131-.018-.26-.038-.388-.065-.139-.029-.228-.165-.199-.304.023-.109.112-.188.217-.202l.009-.002c.061-.008.121-.016.181-.022.06-.007.12-.017.179-.025.118-.016.235-.035.35-.058.229-.046.452-.102.659-.177.415-.148.771-.373.972-.654.2-.278.249-.603.153-.884-.045-.14-.128-.261-.227-.352-.1-.093-.221-.15-.359-.179-.138-.029-.298-.02-.469.019-.085.02-.173.05-.261.085-.076.032-.207.096-.321.146-.469.21-.965.407-1.487.537-.519.135-1.061.2-1.593.198-.532-.006-1.056-.067-1.558-.2h-.001c-.153-.04-.243-.196-.202-.348.034-.123.144-.206.265-.212Z" fill="#171616"/>
  <path d="m39.841,32.214c-.013.071-.026.123-.043.181-.016.058-.038.111-.058.166-.019.056-.046.107-.071.159l-.039.079-.043.076c-.029.05-.058.102-.09.149l-.102.141c-.066.097-.148.178-.224.266-.318.339-.708.6-1.117.8-.104.046-.206.097-.312.14-.107.037-.214.074-.322.108-.054.016-.108.036-.161.05l-.164.035c-.11.023-.22.044-.33.065-.11.018-.221.024-.332.034-.111.008-.221.016-.331.02-.221-.007-.442-.019-.66-.049-.086-.012-.146-.09-.134-.176.008-.06.049-.108.102-.126l.011-.004c.204-.072.406-.127.607-.176.197-.064.395-.118.589-.174.096-.033.191-.066.287-.096l.144-.045.139-.054c.092-.037.185-.07.279-.104l.269-.12c.355-.165.691-.361.996-.601l.111-.093.057-.046.052-.05.107-.099.101-.105.052-.052.047-.055c.03-.038.065-.074.093-.112.03-.038.061-.077.087-.117.029-.037.057-.083.078-.113l.023-.031c.056-.076.162-.09.238-.034.053.038.076.102.065.164Z" fill="#3d3d3d"/>
  <path d="m45.745,32.98c-.167.321-.396.613-.662.866-.066.063-.137.123-.208.181-.073.055-.144.114-.221.164-.076.052-.152.105-.232.15l-.12.069-.122.063c-.656.336-1.391.494-2.116.514-.727.022-1.449-.096-2.126-.324-.677-.226-1.312-.559-1.869-.985-.068-.052-.081-.149-.029-.218.043-.055.115-.074.177-.052l.004.002c.319.118.632.239.948.342.315.105.634.193.952.268.637.149,1.283.234,1.925.221.641-.011,1.276-.123,1.864-.359.293-.119.577-.264.837-.448.261-.183.499-.4.715-.645l.003-.003c.063-.071.171-.078.242-.016.059.053.073.14.037.208Z" fill="#3d3d3d"/>
</svg>