<svg width="128" height="128" viewBox="0 0 128 128" fill="none" xmlns="http://www.w3.org/2000/svg">
    
          <path d="M112.118 48.0968C105.76 46.557 96.9484 50.9484 91.3309 62.9462C89.0346 61.261 86.4241 60.0528 83.6533 59.3928C80.8826 58.7329 78.0077 58.6346 75.1984 59.1037C74.2146 53.7072 70.586 37.2967 62.0029 31.9643C49.8198 24.3935 44.0169 37.8955 51.7232 43.0995C57.7541 47.1701 62.5019 52.6949 65.4104 62.8891C63.7624 63.9746 62.2437 65.2446 60.8837 66.6745C60.5938 66.9834 60.3086 67.2971 60.0282 67.6155C57.248 64.3577 49.1568 53.8926 36.1895 52.2886C24.8404 50.8628 23.2721 66.6816 36.8311 67.972C46.9896 68.9415 52.3363 73.7819 54.8527 77.0683C54.0518 79.7569 53.7403 82.5676 53.9331 85.3663C45.6138 82.4078 37.0307 81.9445 31.349 85.1453C26.2876 87.9968 25.4179 97.9201 37.9289 95.3894C50.44 92.8587 56.6705 96.1949 59.7288 98.4975C59.8999 98.6615 60.0638 98.8326 60.2349 99.0037C66.0449 104.536 74.3785 105.954 81.9849 103.473C84.3303 109.925 90.8461 109.219 97.761 102.311C105.382 94.6836 104.89 86.3857 98.9872 84.6249C99.3555 82.8816 99.5277 81.1026 99.5005 79.321C99.2795 72.3847 101.275 65.1204 111.391 61.5917C121.507 58.0629 119.254 49.822 112.118 48.0968Z" fill="#FEF3E6"/>
          <path d="M55.4297 74.9777C55.3617 75.4715 55.2567 75.9813 55.1723 76.4812L54.9066 77.9626C54.7308 78.9408 54.5839 79.909 54.4659 80.8672C54.3382 81.8287 54.2743 82.7822 54.2228 83.7437C54.2228 83.9846 54.2043 84.2255 54.1899 84.4704C54.1755 84.7153 54.1899 84.9542 54.1899 85.199L54.1755 85.5724C54.1755 85.6949 54.1858 85.8173 54.1858 85.9418C54.1858 86.1907 54.1858 86.4456 54.1693 86.7085V86.7888C54.1576 86.9724 54.0717 87.144 53.9304 87.266C53.7891 87.3879 53.6039 87.4502 53.4155 87.4392C53.2987 87.4315 53.1855 87.3962 53.0858 87.3364C52.9861 87.2766 52.9027 87.1941 52.843 87.096C52.6988 86.8511 52.5629 86.6002 52.4311 86.3412C52.3672 86.2127 52.3096 86.0823 52.2478 85.9518L52.1077 85.5503C52.0212 85.2813 51.9327 85.0083 51.8585 84.7333C51.7844 84.4583 51.7453 84.1773 51.6999 83.8963C51.53 82.7763 51.53 81.6379 51.6999 80.5179C51.8591 79.4158 52.1573 78.3371 52.5876 77.3062C52.705 77.0532 52.8121 76.7963 52.9398 76.5494C53.0675 76.3025 53.1972 76.0556 53.3517 75.8167C53.5061 75.5779 53.6482 75.341 53.8151 75.1142C53.9827 74.8788 54.1657 74.6542 54.3629 74.4417C54.4489 74.3378 54.5678 74.2647 54.7011 74.2339C54.8343 74.2031 54.9743 74.2163 55.099 74.2715C55.2237 74.3266 55.3261 74.4206 55.39 74.5386C55.454 74.6566 55.4759 74.792 55.4524 74.9235L55.4297 74.9777Z" fill="black"/>
          <path d="M69.1019 60.6691C69.0003 60.7442 68.871 60.8237 68.737 60.9098C68.6031 60.9959 68.4807 61.0688 68.3537 61.1549L67.6009 61.6562C67.1044 62.0007 66.6125 62.3319 66.1391 62.6896C65.1877 63.3918 64.2686 64.1139 63.3979 64.8978C63.167 65.0811 62.9661 65.2909 62.7513 65.4852L62.4234 65.7745C62.3126 65.8717 62.2156 65.9821 62.1094 66.0814C61.8992 66.2824 61.6914 66.49 61.472 66.6865C61.2526 66.883 61.0679 67.1105 60.8554 67.318C60.4213 67.7244 60.0449 68.1792 59.6084 68.6032C59.1719 69.0272 58.7932 69.4865 58.3129 69.9281L58.2621 69.9723C58.1356 70.0852 57.9742 70.1559 57.8021 70.1735C57.6301 70.1912 57.4566 70.155 57.308 70.0704C57.1593 69.9857 57.0433 69.8572 56.9776 69.7041C56.9119 69.551 56.8999 69.3817 56.9435 69.2215C57.0289 68.9035 57.1351 68.5966 57.2483 68.2874C57.3527 67.9762 57.4777 67.6716 57.6224 67.3755C57.9079 66.7809 58.239 66.2074 58.6131 65.6597C58.8025 65.3859 58.9918 65.112 59.195 64.847C59.3982 64.5821 59.6292 64.337 59.8486 64.0808C60.0668 63.8285 60.298 63.5868 60.5413 63.3565L60.9085 63.0098C61.0293 62.891 61.1565 62.7782 61.2896 62.672C62.3242 61.793 63.4805 61.0544 64.7258 60.477C65.3487 60.1893 65.9951 59.9508 66.6587 59.7637C66.9931 59.6733 67.3323 59.5996 67.6748 59.5429C67.8456 59.5142 68.0188 59.4855 68.1944 59.4656L68.4622 59.4414L68.7463 59.4259C68.8911 59.4213 69.0337 59.4602 69.1542 59.5371C69.2747 59.6141 69.3669 59.7252 69.4179 59.8549C69.4688 59.9845 69.476 60.1262 69.4384 60.26C69.4008 60.3938 69.3202 60.5129 69.2081 60.6007L69.1019 60.6691Z" fill="black"/>
          <path fill-rule="evenodd" clip-rule="evenodd" d="M84.427 107.67C85.2127 107.13 85.9617 106.538 86.6687 105.897C87.6252 105.045 88.4836 104.089 89.2279 103.046C89.959 101.999 90.5644 100.869 91.0316 99.6809C91.0859 99.5546 91.0927 99.4128 91.0508 99.2818C91.0089 99.1508 90.921 99.0394 90.8034 98.968C90.74 98.9297 90.6695 98.9045 90.5962 98.8938C90.5229 98.8831 90.4482 98.8872 90.3765 98.9058C90.3047 98.9244 90.2375 98.9571 90.1786 99.0021C90.1507 99.0234 90.1249 99.0473 90.1016 99.0733C89.238 99.7632 88.3345 100.402 87.3959 100.985C86.4422 101.578 85.4516 102.109 84.4302 102.575C83.4215 103.034 82.3831 103.425 81.3221 103.744C80.8017 103.901 80.2671 104.037 79.7395 104.158C79.2406 104.268 78.7361 104.352 78.2282 104.407L78.1711 104.429H77.9573C77.7547 104.47 77.5623 104.551 77.3918 104.668C77.2212 104.784 77.0759 104.934 76.9646 105.108C76.934 105.156 76.9061 105.206 76.8811 105.256C78.5945 105.091 80.3074 104.733 81.985 104.186C82.5638 105.779 83.3967 106.935 84.427 107.67Z" fill="black"/>
          <path d="M101.44 83.4344C101.222 84.1979 100.953 84.9458 100.634 85.6728C100.327 86.3857 99.9995 87.0986 99.6288 87.7402C98.9028 89.0722 98.0557 90.3346 97.0981 91.5113C97.0676 91.5502 97.0295 91.5826 96.9863 91.6066C96.943 91.6306 96.8955 91.6457 96.8463 91.651C96.7972 91.6563 96.7474 91.6517 96.7001 91.6375C96.6527 91.6233 96.6087 91.5998 96.5706 91.5683C96.5025 91.5116 96.4561 91.4331 96.4392 91.346C96.4223 91.259 96.436 91.1688 96.4779 91.0907C97.1941 89.8294 97.793 88.505 98.2672 87.1342C98.5025 86.4214 98.7021 85.7726 98.8732 85.0811C99.0415 84.4101 99.1677 83.7291 99.251 83.0423C99.2803 82.7483 99.4252 82.478 99.6538 82.2908C99.8824 82.1037 100.176 82.0149 100.47 82.0443C100.764 82.0736 101.034 82.2185 101.222 82.4471C101.409 82.6757 101.497 82.9693 101.468 83.2633C101.462 83.3209 101.452 83.378 101.44 83.4344Z" fill="black"/>
          <path d="M55.2234 29.7116C57.6493 29.8145 59.9979 30.5948 62.0029 31.9643C70.5575 37.2967 74.2146 53.7072 75.1983 59.1037C76.3566 58.9252 77.5266 58.8347 78.6985 58.8328C83.2443 58.7952 87.6788 60.2392 91.3309 62.9462C96.2355 52.5024 103.578 47.7974 109.595 47.7974C110.445 47.7947 111.292 47.8952 112.118 48.0968C119.247 49.822 121.528 58.0772 111.406 61.6416C101.283 65.206 99.2866 72.4346 99.5147 79.3709C99.5419 81.1525 99.3697 82.9315 99.0014 84.6748C104.933 86.4356 105.417 94.7335 97.7752 102.361C94.0754 106.054 90.4896 107.979 87.6024 107.979C85.0859 107.979 83.0899 106.553 81.9992 103.523C79.6385 104.299 77.1699 104.696 74.685 104.7C69.3243 104.754 64.1508 102.73 60.2492 99.0536C60.0781 98.8825 59.9141 98.7114 59.743 98.5474C57.4618 96.8294 53.4269 94.5339 46.3124 94.5339C43.4995 94.5572 40.6959 94.8605 37.9432 95.4393C36.7293 95.7008 35.4921 95.8393 34.2504 95.8527C25.6958 95.8527 26.865 87.7331 31.3989 85.1952C34.3777 83.6471 37.7029 82.8864 41.0585 82.9852C45.4726 83.0641 49.8419 83.886 53.983 85.4162C53.7902 82.6175 54.1016 79.8068 54.9026 77.1182C52.3861 73.8319 47.0609 68.9914 36.881 68.0219C23.8994 66.7886 24.7619 52.2458 34.8492 52.2529C35.3257 52.2529 35.8018 52.2815 36.275 52.3385C49.2423 53.9425 57.3335 64.4076 60.1138 67.6654C60.3894 67.3423 60.6745 67.0286 60.9692 66.7244C62.3292 65.2945 63.8479 64.0245 65.496 62.939C62.5874 52.7448 57.8396 47.2556 51.8087 43.1494C45.7777 39.0432 48.0589 29.7615 55.3089 29.7615L55.2234 29.7116ZM55.3089 26.91C53.2103 26.8689 51.1561 27.5164 49.4605 28.7537C47.7649 29.991 46.5214 31.7497 45.9203 33.7608C45.2739 35.9186 45.341 38.2273 46.1116 40.3439C46.8822 42.4605 48.3152 44.2719 50.1976 45.5091C56.0788 49.4798 59.7288 54.4272 62.1526 61.8127C61.4967 62.3259 60.8551 62.8606 60.2349 63.4309C56.2356 58.8685 48.23 50.9412 36.6101 49.5083C36.0329 49.4381 35.452 49.4024 34.8706 49.4014C32.0874 49.3203 29.3855 50.3457 27.3568 52.2529C25.5586 54.0058 24.5 56.3807 24.3984 58.8899C24.1489 64.0654 27.8772 70.0179 36.6314 70.852C44.5301 71.5649 49.1639 74.8441 51.7944 77.7883C51.5052 79.025 51.3028 80.2803 51.1885 81.5452C47.8946 80.6353 44.4968 80.1561 41.0798 80.1194C37.2331 80.0096 33.4237 80.8988 30.0231 82.7001C26.3589 84.7603 24.32 89.173 25.3394 92.9584C26.2804 96.5228 29.6166 98.6615 34.3074 98.6615C35.7449 98.6483 37.1777 98.4931 38.5847 98.1981C41.1633 97.6511 43.7904 97.3645 46.4264 97.3427C51.1528 97.3427 54.9311 98.4262 57.9751 100.658L58.3957 101.071C62.8294 105.244 68.7037 107.542 74.792 107.487C76.7493 107.485 78.7004 107.265 80.6091 106.831C81.3537 108.049 82.4026 109.053 83.6525 109.743C84.9024 110.432 86.3103 110.785 87.7379 110.766C91.4877 110.766 95.7008 108.535 99.9282 104.35C105.054 99.2176 107.378 93.2293 106.137 88.339C105.604 86.1215 104.228 84.1988 102.302 82.9781C102.443 81.8598 102.51 80.7333 102.502 79.6062C102.509 79.4946 102.509 79.3827 102.502 79.2711C102.259 71.4294 105.353 66.8099 112.482 64.3006C118.185 62.3188 121.436 58.5263 121.222 54.1563C121.022 50.0359 117.658 46.4857 112.924 45.3308C111.878 45.0785 110.806 44.9517 109.73 44.953C105.931 44.953 102.024 46.4287 98.4311 49.2303C95.0837 51.866 92.2924 55.1395 90.2187 58.8614C86.674 56.9584 82.7074 55.9777 78.6843 56.0098C78.285 56.0098 77.8787 56.0098 77.4795 56.0098C75.8256 48.2893 71.8264 34.7232 63.4999 29.5405C61.0421 27.8879 58.1693 26.9591 55.2091 26.8601L55.3089 26.91Z" fill="black"/>
          <path d="M86.6544 68.8916C85.3319 70.291 84.2243 71.8791 83.368 73.6037C83.1898 74.0386 82.9617 74.4521 82.812 74.894C82.6623 75.336 82.4912 75.7637 82.3842 76.2129C82.2773 76.662 82.1775 77.1111 82.0848 77.5602L81.9423 78.9289C81.8995 79.3852 81.9423 79.8486 81.9423 80.3119C81.9272 80.5493 81.9272 80.7874 81.9423 81.0248L82.0492 81.7377C82.0861 82.2029 82.1552 82.665 82.2559 83.1207C82.3842 83.5769 82.4983 84.0403 82.6052 84.5037C82.7171 84.9738 82.8673 85.4339 83.0543 85.8795L83.5391 87.2554C83.9383 88.1607 84.3731 89.0447 84.7438 90V90.0855C84.8092 90.2606 84.8032 90.4542 84.7272 90.6249C84.6512 90.7955 84.5113 90.9295 84.3375 90.998C84.1994 91.0505 84.0484 91.0589 83.9054 91.0219C83.7623 90.9848 83.6344 90.9042 83.5391 90.7913C82.8262 89.9786 82.2203 89.1231 81.6072 88.2463L80.8301 86.8205C80.5492 86.3483 80.3107 85.8521 80.1172 85.3377C79.2772 83.2581 78.9073 81.0186 79.0337 78.7793C79.2005 76.5179 79.9362 74.3354 81.1724 72.4346C81.4647 71.9641 81.8068 71.5292 82.1419 71.0872C82.4945 70.6671 82.868 70.265 83.2611 69.8825C84.0437 69.1093 84.9288 68.4472 85.8917 67.9149C86.0221 67.8469 86.1723 67.8269 86.316 67.8584C86.4597 67.8899 86.5877 67.971 86.6777 68.0873C86.7677 68.2037 86.8141 68.348 86.8085 68.495C86.8029 68.642 86.7458 68.7824 86.6473 68.8916H86.6544Z" fill="black"/>
          
</svg>
