<svg xmlns="http://www.w3.org/2000/svg" viewBox="0 0 290.827 337.615" fill="black" width="32px">
  <path d="m226.477,168.53c18.492,0,36.983.038,55.475-.035,3.342-.013,6.767-.231,8.373,3.355,1.823,4.072-1.726,5.644-4.138,7.684-19.627,16.599-39.209,33.252-58.867,49.816-30.183,25.432-60.402,50.822-90.632,76.198-11.908,9.996-23.86,19.94-35.86,29.825-2.122,1.749-4.506,3.219-7.48,1.424-3.133-1.891-2.367-5.011-1.719-7.359,2.288-8.283,5.008-16.45,7.714-24.612,6.489-19.575,13.024-39.136,19.637-58.67,1.199-3.543-.617-5.022-3.389-6.258-2.645-1.179-5.415-.725-8.132-.728-32.485-.03-64.971-.011-97.456-.013-10.782,0-12.033-1.957-7.607-11.593,16.532-35.989,33.445-71.796,50.58-107.504,15.873-33.076,30.801-66.605,46.188-99.915.87-1.235,1.682-2.399,2.408-3.635C103.906,1.555,113.57-.328,126.792.041c31.462.877,62.964.294,94.45.323,12.173.011,12.798.595,8.032,11.229-17.537,39.135-35.356,78.143-52.971,117.243-4.434,9.843-8.755,19.752-12.667,29.81-3.24,8.328-1.91,9.848,7.366,9.86,18.492.025,36.983.007,55.475.024Z"
  ></path>
  <path d="m97.705,23.358s3.812-8.188,4.518-9.812,1.906.706,1.906.706l-.071,5.153-6.353,3.953Z"
  ></path>
</svg>