<?xml version="1.0" encoding="UTF-8"?>
<svg id="Layer_1" data-name="Layer 1" xmlns="http://www.w3.org/2000/svg" viewBox="0 0 91.31 67.71">
  <defs>
    <style>
      .cls-1 {
        fill: #e6f3f4;
      }
    </style>
  </defs>
  <g>
    <path class="cls-1" d="M10.11,38.04c.02.31.06.62.11.92.05.3.1.61.16.91.49,2.4,1.4,4.62,2.47,6.72,1.07,2.08,2.32,4.05,3.73,5.92.07.09.16.16.27.19,0,0,0,0,0,0,.21-.19.42-.37.63-.56,0-.05-.01-.1-.03-.14h0c-.44-1.08-.92-2.12-1.39-3.16-.47-1.04-.92-2.08-1.34-3.13-.85-2.09-1.61-4.19-2.04-6.31-.43-2.12-.49-4.25-.02-6.35.23-1.07.56-2.11.97-3.13.4-1.04.88-2.06,1.36-3.11h0c.05-.11.06-.22.03-.33-.03-.11-.09-.21-.17-.28-.11-.09-.24-.13-.38-.11-.14.01-.26.08-.35.19-.75.92-1.42,1.89-2.01,2.92-.61,1.05-1.1,2.17-1.46,3.33-.37,1.19-.57,2.42-.61,3.67v.47s0,.47,0,.47c0,.31.03.62.06.93Z"/>
    <path class="cls-1" d="M82.8,4.99c-3.53-2.14-8.45-2.39-13.51-.68-5.91,2-11.64,6.4-16.58,12.74-1.82,2.48-3.45,4.88-5.02,7.19-3.53,5.17-6.91,10.14-12.1,15.83,7.94-3.94,15.52-6.08,21.43-6.08,1.29,0,2.57.11,3.84.35,4.71.95,7.66,3.72,8.58,8.05,10.04-3.83,14.88-13.19,16.14-16.02,4.26-9.55,3.2-17.75-2.77-21.38Z"/>
    <path d="M91.01,12.15c-.8-4.32-3.07-7.73-6.58-9.87-4.38-2.66-10.11-3.01-16.13-.97-6.49,2.2-12.74,6.97-18.07,13.8l-.03.04c-.46.63-.9,1.24-1.34,1.86-6.96-4.58-16.54-3.49-29.6,4.58-1.67-1.95-4.59-2.41-6.84-.94-2.36,1.54-3.1,4.61-1.78,6.99C-5.42,40.69-.13,50.32,6.01,65.74c-.06.25-.07.51-.01.77.1.4.35.75.69.97.25.16.54.24.83.24.26,0,.52-.06.75-.19.23-.12.42-.3.57-.52,1.53-2.35,2.81-4.09,4.13-5.63.38-.35.79-.74,1.22-1.17,1.1-1.1,2.25-2.28,3.45-3.5,1.08-.97,2.29-2.01,3.72-3.24,1.29-1.11,2.74-2.36,4.41-3.83,2.48-1.77,5.06-3.39,7.71-4.88,10.32-5.76,20.57-8.56,26.77-7.31,3.72.75,5.77,2.82,6.25,6.34.04.34.16.66.35.95s.43.53.72.71c.33.2.7.32,1.08.35.38.03.77-.02,1.13-.15,11.7-4.07,17.24-14.78,18.67-17.97,2.51-5.63,3.41-10.99,2.57-15.51ZM69.43,42.39c-.92-4.33-3.87-7.1-8.58-8.05-1.26-.24-2.55-.36-3.84-.35-5.91,0-13.49,2.14-21.43,6.08,5.19-5.69,8.58-10.66,12.1-15.83,1.58-2.32,3.21-4.71,5.02-7.19,4.94-6.34,10.67-10.74,16.58-12.74,5.06-1.72,9.98-1.47,13.51.68,5.97,3.63,7.03,11.83,2.77,21.38-1.26,2.83-6.1,12.19-16.14,16.02ZM10.05,36.18c.04-1.24.24-2.48.61-3.67.36-1.16.85-2.28,1.46-3.33.59-1.02,1.27-2,2.01-2.92.09-.11.21-.17.35-.19.14-.01.27.03.38.11.09.07.15.17.17.28.03.11.01.23-.03.33h0c-.48,1.05-.96,2.07-1.36,3.11-.41,1.01-.74,2.06-.97,3.13-.47,2.1-.4,4.23.02,6.35.43,2.12,1.19,4.23,2.04,6.31.42,1.04.87,2.09,1.34,3.13.47,1.04.94,2.08,1.39,3.15h0c.02.05.02.1.03.15-.21.19-.42.37-.63.56,0,0,0,0,0,0-.11-.03-.21-.1-.27-.19-1.41-1.86-2.65-3.84-3.73-5.92-1.07-2.09-1.98-4.32-2.47-6.72-.05-.3-.11-.6-.16-.91-.05-.3-.09-.61-.11-.92s-.05-.62-.06-.93v-.47s0-.47,0-.47Z"/>
  </g>
  <path d="M70.12,18.93l-1.88-1.85-.02-5.37,1.89-1.91,8.7.02,1.81,1.75.04.1-1.27,1.24-1.32-1.26-7.25.02-.8.84.03,3.8.82.82h1.32l.05-.05v-1.45l-.05-.04s-.02.03-.03.03h-.8l-.05-.08.03-1.79,9.12.06,2.22,2.22-.02.08-1.24,1.24-1.74-1.73-5.56-.03-.05.04v1.5h4.62l2.11,2.11.03,5.34-1.98,1.99h-4.81v1.98l.05.05h1.01v1.75l-.05.05h-3.85v-1.8h.98l.05-.05v-1.98h-2.08l-1.95-1.95v-3.68h1.8v2.88l.95.95h1.22l.05-.05v-5.73l-.05-.05h-2.06ZM74.06,24.72h4.01l.95-.98v-3.6s-.06-.16-.06-.16l-1.05-1.05h-3.85v1.99l3.48-.02.03,1.82h-3.51v1.99Z"/>
</svg>