<?xml version="1.0" encoding="UTF-8"?>
<svg id="Layer_1" data-name="Layer 1" xmlns="http://www.w3.org/2000/svg" viewBox="0 0 114.58 117.1">
  <path fill="#f0feff" d="M107.39,90.59l.58.76c-13.8,9.81-29.59,3.24-38.8-8.06.83,9.85,2.62,19.6,5.34,29.1,0,0-3.82,2.22-7.58,4.71-4.26-13.71-7.36-24.79-9.55-36.87-3.89,1.6-7.8,3.06-11.66,4.35-.44-2.15-.87-4.15-1.28-6,4.16-1.57,8.11-3.23,11.85-5-1.8-12.13-2.8-25.81-3.2-44.33,5.75-3.01,11.7-5.63,17.8-7.84-1.87,15.21-2.72,30.53-2.57,45.86,38.91-23,45.93-53.9,12.82-53.9-20.77,0-56.64,16.12-77,30.22.05,0-2.14-10.72-4.14-23.29C9.17,15.56,42.5,0,75,0c27.68,0,39.58,11.4,39.58,24.67,0,19.93-20.46,37.57-44.49,49.74,6.54,9.21,17.49,11.66,28.17,5,1.51,4.75,4.78,8.75,9.13,11.18Z"/>
</svg>