<svg width="400" height="392" viewBox="0 0 400 392" fill="none" xmlns="http://www.w3.org/2000/svg">
<g filter="url(#filter0_df_2432_1954)">
<path d="M305.283 94.7722L206.943 121.316L173.287 163.924L181.092 195.209L239.468 216.823L282.082 209.429C282.082 209.429 293.825 167.696 316.955 148.01L305.283 94.7722Z" fill="white"/>
<path d="M314.836 42.5104C284.74 21.1554 264.131 20.549 243.991 54.2351C223.85 87.9211 191.397 169.349 191.397 169.349C191.397 169.349 123.959 255.178 187.063 220.783C191.65 218.28 215.531 228.036 218.536 218.736C224.261 201.192 230.864 204.917 236.289 196.586C242.291 187.365 237 185.893 242.615 178.585C247.581 172.112 250.522 175.522 256.137 167.632C261.261 160.419 251.614 149.711 256.335 142.938C266.385 128.489 348.95 66.7158 314.836 42.5104Z" fill="black"/>
<path d="M277.504 70.0623C283.273 70.0623 287.95 65.4052 287.95 59.6604C287.95 53.9156 283.273 49.2585 277.504 49.2585C271.735 49.2585 267.058 53.9156 267.058 59.6604C267.058 65.4052 271.735 70.0623 277.504 70.0623Z" fill="white"/>
<path d="M208.509 185.516C208.336 185.6 208.16 185.673 207.979 185.736L207.52 185.901C207.211 186.011 206.919 186.09 206.619 186.177C206.025 186.342 205.433 186.484 204.847 186.594C203.684 186.824 202.505 186.966 201.32 187.019C200.16 187.075 198.997 187.043 197.841 186.925C196.711 186.807 195.591 186.613 194.488 186.342C194.375 186.316 194.268 186.267 194.174 186.199C194.079 186.13 194 186.045 193.939 185.946C193.878 185.847 193.837 185.738 193.819 185.623C193.8 185.509 193.805 185.391 193.832 185.279C193.873 185.096 193.971 184.931 194.114 184.809C194.256 184.687 194.435 184.614 194.623 184.602H194.67C195.692 184.518 196.707 184.36 197.707 184.129C198.686 183.911 199.645 183.617 200.577 183.248C201.488 182.894 202.371 182.473 203.218 181.987C203.638 181.751 204.009 181.491 204.42 181.2C204.61 181.067 204.8 180.933 204.974 180.791L205.219 180.594C205.29 180.531 205.401 180.445 205.385 180.428C205.718 180.222 206.09 180.084 206.478 180.021C206.864 179.958 207.261 179.972 207.643 180.062C208.025 180.152 208.385 180.316 208.704 180.546C209.022 180.774 209.291 181.064 209.497 181.397C209.707 181.731 209.848 182.103 209.912 182.493C209.976 182.881 209.962 183.279 209.869 183.662C209.778 184.046 209.61 184.407 209.376 184.725C209.143 185.043 208.847 185.312 208.509 185.516Z" fill="black"/>
<path d="M267.009 218.626C264.124 219.811 261.156 220.785 258.129 221.539C255.142 222.258 252.113 222.783 249.059 223.115C246.038 223.438 243.002 223.593 239.965 223.579C236.943 223.585 233.922 223.424 230.918 223.098C224.935 222.441 219.027 221.233 213.268 219.492C207.502 217.737 201.916 215.443 196.583 212.641C191.228 209.817 186.159 206.484 181.447 202.689C176.723 198.843 172.435 194.494 168.66 189.72L167.245 187.916L165.917 186.059C165.031 184.838 164.145 183.53 163.331 182.176C161.646 179.439 160.211 176.556 159.045 173.561C157.824 170.463 156.967 167.234 156.491 163.939C155.997 160.5 155.997 157.009 156.491 153.569C157.012 149.989 158.152 146.525 159.86 143.333C161.602 140.103 163.929 137.223 166.723 134.836C169.487 132.485 172.65 130.643 176.062 129.395C179.364 128.195 182.831 127.504 186.342 127.347C189.715 127.191 193.095 127.455 196.401 128.135C198.006 128.462 199.589 128.88 201.145 129.387C201.936 129.632 202.624 129.899 203.352 130.174C204.079 130.45 204.783 130.703 205.495 130.962C211.429 133.205 216.944 136.423 221.808 140.482C224.4 142.688 226.67 145.243 228.553 148.073C230.561 151.103 231.955 154.495 232.658 158.058C233.377 161.806 233.174 165.672 232.064 169.325C230.945 172.992 228.895 176.309 226.11 178.956C223.408 181.498 220.123 183.343 216.542 184.334C214.835 184.803 213.082 185.091 211.315 185.192C209.608 185.267 207.898 185.183 206.207 184.94C199.933 183.956 194.158 180.949 189.767 176.381C189.404 176.007 189.205 175.505 189.214 174.985C189.223 174.465 189.438 173.97 189.814 173.609C190.058 173.375 190.359 173.208 190.687 173.124C191.015 173.04 191.361 173.041 191.688 173.129H191.751C194.307 173.845 196.903 174.413 199.525 174.829C201.898 175.186 204.304 175.267 206.697 175.074C211.212 174.649 215 172.9 217.411 170.247C218.602 168.962 219.471 167.416 219.95 165.734C220.402 164.032 220.434 162.247 220.045 160.53C219.255 156.963 216.74 153.443 213.205 150.577C209.395 147.617 205.12 145.304 200.553 143.734C199.959 143.521 199.374 143.309 198.766 143.112C198.157 142.915 197.548 142.703 197.01 142.553C195.907 142.232 194.788 141.969 193.657 141.765C191.493 141.331 189.282 141.178 187.078 141.309C183.029 141.454 179.146 142.952 176.055 145.561C173.144 148.161 171.284 151.727 170.82 155.592C170.353 159.898 170.988 164.25 172.662 168.246C173.523 170.437 174.582 172.546 175.825 174.546C176.442 175.57 177.122 176.562 177.873 177.593L178.964 179.121L180.135 180.593C183.281 184.538 186.844 188.133 190.762 191.318C194.698 194.544 198.935 197.387 203.415 199.806C212.478 204.663 222.342 207.864 232.54 209.256C237.588 209.947 242.694 210.121 247.777 209.775C250.277 209.589 252.763 209.266 255.226 208.807C257.637 208.31 260.013 207.666 262.344 206.878L262.502 206.823C263.289 206.555 264.121 206.445 264.951 206.498C265.781 206.551 266.593 206.766 267.339 207.132C268.085 207.498 268.751 208.006 269.3 208.629C269.849 209.251 270.269 209.975 270.535 210.76C271.061 212.272 270.989 213.926 270.334 215.387C269.679 216.848 268.49 218.006 267.009 218.626Z" fill="black"/>
<path d="M254.444 149.978C255.116 150.072 255.559 150.183 256.089 150.301C256.619 150.419 257.101 150.537 257.591 150.679C258.58 150.947 259.544 151.238 260.509 151.577C262.446 152.214 264.328 153.005 266.14 153.938C268 154.898 269.744 156.069 271.335 157.427C272.947 158.849 274.287 160.552 275.289 162.451C275.413 162.692 275.488 162.956 275.51 163.226C275.532 163.497 275.5 163.769 275.417 164.027C275.333 164.285 275.199 164.525 275.022 164.731C274.846 164.938 274.63 165.107 274.387 165.231C273.993 165.432 273.545 165.502 273.109 165.431C272.671 165.36 272.269 165.152 271.959 164.836L271.817 164.687C270.737 163.609 269.477 162.727 268.092 162.08C266.643 161.438 265.127 160.96 263.569 160.655C261.964 160.331 260.335 160.134 258.698 160.065C257.908 160.018 257.053 160.009 256.231 160.018C255.828 160.018 255.44 160.018 255.021 160.057C254.602 160.096 254.183 160.112 253.945 160.16C253.268 160.305 252.567 160.316 251.885 160.192C251.202 160.067 250.551 159.81 249.969 159.436C249.386 159.06 248.884 158.574 248.49 158.005C248.096 157.436 247.82 156.796 247.675 156.12C247.529 155.445 247.518 154.747 247.642 154.067C247.767 153.388 248.025 152.74 248.402 152.16C248.779 151.579 249.267 151.08 249.838 150.687C250.41 150.295 251.053 150.019 251.731 149.876C252.348 149.745 252.982 149.724 253.606 149.813L254.444 149.978Z" fill="black"/>
<path d="M200.759 91.1023C194.575 68.7157 220.528 42.9905 248.767 73.96C267.54 94.5276 249.637 110.236 231.9 109.134" fill="#FCFAFA"/>
<path d="M233.662 115.206C232.95 115.206 232.239 115.206 231.519 115.135C229.922 115.036 228.43 114.309 227.371 113.114C226.313 111.92 225.774 110.355 225.873 108.765C225.975 107.174 226.705 105.689 227.904 104.634C229.103 103.579 230.673 103.04 232.27 103.134C239.918 103.607 247.296 100.174 249.802 94.9769C252.649 89.0555 248.386 82.4806 244.267 78.008C234.058 66.8186 223.446 62.9996 215.174 67.5352C207.899 71.5275 204.19 80.9687 206.547 89.5044C206.758 90.266 206.816 91.0616 206.718 91.8456C206.62 92.6297 206.368 93.3867 205.975 94.0735C205.584 94.7604 205.059 95.3634 204.433 95.8481C203.806 96.3328 203.089 96.6897 202.324 96.8983C200.78 97.3208 199.13 97.1153 197.737 96.3268C196.344 95.5383 195.324 94.2314 194.899 92.6935C191.04 78.7167 197.121 63.7004 209.354 56.9995C222.734 49.6685 239.127 54.4955 253.202 69.9211C265.752 83.6696 263.261 94.7802 260.651 100.182C256.318 109.222 245.413 115.198 233.662 115.206Z" fill="black"/>
<path d="M177.604 136.254C158.095 114.119 178.513 77.9129 213.45 95.9607C259.837 119.922 233.971 151.08 214.043 142.978" fill="white"/>
<path d="M220.734 150.584C217.615 150.591 214.525 149.987 211.64 148.805C210.089 148.172 208.853 146.951 208.205 145.41C207.558 143.871 207.55 142.138 208.184 140.592C208.5 139.826 208.962 139.129 209.549 138.542C210.134 137.955 210.829 137.488 211.596 137.168C212.363 136.849 213.185 136.682 214.016 136.68C214.847 136.676 215.671 136.837 216.44 137.151C222.229 139.513 229.393 136.631 232.082 130.852C235.379 123.765 231.449 112.355 210.533 101.551C198.149 95.1575 186.953 96.1733 180.571 104.284C173.533 113.229 176.142 125.048 182.35 132.096C183.457 133.351 184.019 134.992 183.91 136.66C183.802 138.327 183.033 139.883 181.773 140.986C181.148 141.531 180.422 141.949 179.635 142.215C178.848 142.48 178.016 142.59 177.188 142.536C176.358 142.481 175.549 142.265 174.803 141.899C174.058 141.534 173.393 141.025 172.845 140.403C161.592 127.639 160.651 109.182 170.615 96.5119C178.665 86.2754 194.908 79.2908 216.361 90.3699C245.193 105.26 249.321 123.78 243.563 136.151C241.519 140.461 238.288 144.104 234.247 146.659C230.206 149.214 225.521 150.575 220.734 150.584Z" fill="black"/>
<path d="M208.509 185.516C208.336 185.6 208.16 185.673 207.979 185.736L207.52 185.901C207.211 186.011 206.919 186.09 206.619 186.177C206.025 186.342 205.433 186.484 204.847 186.594C203.684 186.824 202.505 186.966 201.32 187.019C200.16 187.075 198.997 187.043 197.841 186.925C196.711 186.807 195.591 186.613 194.488 186.342C194.375 186.316 194.268 186.267 194.174 186.199C194.079 186.13 194 186.045 193.939 185.946C193.878 185.847 193.837 185.738 193.819 185.623C193.8 185.509 193.805 185.391 193.832 185.279C193.873 185.096 193.971 184.931 194.114 184.809C194.256 184.687 194.435 184.614 194.623 184.602H194.67C195.692 184.518 196.707 184.36 197.707 184.129C198.686 183.911 199.645 183.617 200.577 183.248C201.488 182.894 202.371 182.473 203.218 181.987C203.638 181.751 204.009 181.491 204.42 181.2C204.61 181.067 204.8 180.933 204.974 180.791L205.219 180.594C205.29 180.531 205.401 180.445 205.385 180.428C205.718 180.222 206.09 180.084 206.478 180.021C206.864 179.958 207.261 179.972 207.643 180.062C208.025 180.152 208.385 180.316 208.704 180.546C209.022 180.774 209.291 181.064 209.497 181.397C209.707 181.731 209.848 182.103 209.912 182.493C209.976 182.881 209.962 183.279 209.869 183.662C209.778 184.046 209.61 184.407 209.376 184.725C209.143 185.043 208.847 185.312 208.509 185.516Z" fill="black"/>
<path d="M171.998 184.018C152.758 155.671 171.815 127.095 199.746 136.253C247.342 151.845 231.614 197.57 178.569 171.302" fill="white"/>
<path d="M166.755 187.547C164.202 184.214 162.076 180.578 160.429 176.72C158.712 172.707 157.611 168.46 157.163 164.121C156.926 161.884 156.902 159.63 157.092 157.388C157.274 155.095 157.677 152.825 158.294 150.609C159.534 146.018 161.784 141.761 164.881 138.144C168.048 134.464 172.049 131.587 176.553 129.75C180.954 127.99 185.686 127.201 190.423 127.435C192.689 127.541 194.94 127.846 197.153 128.348C198.238 128.59 199.306 128.873 200.355 129.199L201.936 129.718L203.36 130.223C207.228 131.584 210.966 133.284 214.534 135.301C218.263 137.387 221.717 139.93 224.814 142.868C228.153 146.022 230.824 149.81 232.666 154.01C233.633 156.309 234.26 158.737 234.524 161.215C234.806 163.858 234.587 166.529 233.876 169.09C233.14 171.69 231.889 174.118 230.199 176.232C228.563 178.236 226.592 179.944 224.371 181.279C220.326 183.623 215.762 184.935 211.086 185.098C206.873 185.268 202.66 184.796 198.592 183.696C194.736 182.681 191.007 181.238 187.473 179.397C184.011 177.635 180.749 175.504 177.747 173.042C177.549 172.879 177.386 172.679 177.266 172.452C177.147 172.226 177.073 171.978 177.051 171.723C177.028 171.468 177.056 171.212 177.134 170.968C177.211 170.724 177.336 170.498 177.502 170.303C177.733 170.024 178.038 169.816 178.381 169.7C178.725 169.585 179.094 169.567 179.447 169.649C186.714 171.318 193.681 172.964 200.402 173.467C202.084 173.605 203.731 173.657 205.344 173.625C206.909 173.618 208.472 173.498 210.018 173.263C212.755 172.94 215.394 172.052 217.768 170.657C219.602 169.569 220.938 167.812 221.492 165.759C221.935 163.538 221.627 161.235 220.615 159.208C219.383 156.677 217.669 154.41 215.57 152.53C213.248 150.429 210.674 148.623 207.907 147.152C205 145.578 201.959 144.26 198.821 143.214L197.619 142.814L196.527 142.522C195.8 142.333 195.073 142.175 194.345 142.041C192.931 141.784 191.497 141.652 190.059 141.648C187.433 141.56 184.822 142.056 182.413 143.099C180.004 144.143 177.859 145.707 176.134 147.68C175.282 148.666 174.546 149.746 173.943 150.9C173.285 152.074 172.754 153.315 172.362 154.601C171.58 157.321 171.27 160.155 171.444 162.979C171.632 165.993 172.228 168.967 173.215 171.822C174.273 174.832 175.621 177.733 177.241 180.484L177.296 180.594C177.711 181.312 177.98 182.103 178.087 182.925C178.194 183.745 178.138 184.579 177.922 185.378C177.704 186.178 177.332 186.927 176.824 187.583C176.317 188.239 175.684 188.788 174.963 189.201C173.628 189.969 172.056 190.224 170.545 189.92C169.033 189.615 167.686 188.771 166.755 187.547Z" fill="black"/>
<path d="M312.463 126.985C318.528 73.5585 272.133 64.4874 250.878 100.126C245.113 109.796 223.936 122.174 222.307 134.34C219.555 154.884 266.898 172.924 286.541 117.694" fill="white"/>
<path d="M305.347 126.191C305.811 121.639 305.837 117.054 305.426 112.497C305.055 108.208 304.038 103.998 302.413 100.009C301.635 98.1638 300.66 96.4083 299.503 94.7723C298.42 93.2125 297.136 91.8013 295.683 90.5753C292.866 88.2126 289.428 86.7041 285.775 86.2287C281.927 85.7987 278.033 86.3403 274.451 87.8035C272.555 88.5741 270.736 89.5207 269.019 90.6305C267.246 91.7916 265.58 93.1092 264.045 94.5676C262.468 96.0624 261.006 97.6732 259.672 99.3866C258.999 100.261 258.359 101.158 257.735 102.08L256.825 103.481L256.532 103.946L256.184 104.497C255.94 104.859 255.702 105.19 255.457 105.529C253.686 107.851 251.715 110.014 249.566 111.993C247.597 113.859 245.651 115.576 243.745 117.254C240.068 120.361 236.566 123.67 233.26 127.167C231.858 128.681 230.62 130.339 229.567 132.112C229.168 132.818 228.84 133.562 228.586 134.333C228.495 134.645 228.424 134.964 228.373 135.285C228.326 135.617 228.3 135.951 228.294 136.285C228.318 137.769 228.735 139.219 229.504 140.49C230.435 142.01 231.642 143.346 233.062 144.427C234.628 145.628 236.352 146.609 238.186 147.341C240.095 148.096 242.094 148.605 244.133 148.853C248.356 149.332 252.633 148.817 256.62 147.348C260.802 145.765 264.642 143.403 267.935 140.387C271.404 137.207 274.447 133.595 276.989 129.64C278.286 127.623 279.528 125.545 280.667 123.387C281.806 121.23 282.857 119.017 283.829 116.773C284.137 116.099 284.7 115.574 285.394 115.312C286.089 115.049 286.86 115.07 287.539 115.371C288.149 115.647 288.64 116.132 288.922 116.737C289.206 117.342 289.261 118.028 289.081 118.671C287.685 123.75 285.789 128.68 283.419 133.387C280.977 138.262 277.857 142.768 274.151 146.774C272.234 148.835 270.13 150.715 267.864 152.388C265.533 154.084 263.032 155.532 260.399 156.712C257.712 157.91 254.894 158.792 252.001 159.341C249.062 159.869 246.069 160.036 243.089 159.837C236.929 159.482 230.995 157.402 225.969 153.837C223.291 151.918 220.999 149.514 219.215 146.75C217.265 143.718 216.147 140.229 215.974 136.632C215.94 135.704 215.975 134.775 216.077 133.852C216.174 132.92 216.343 131.996 216.583 131.089C217.035 129.428 217.664 127.821 218.456 126.293C219.881 123.648 221.591 121.165 223.557 118.891C227.079 114.903 230.829 111.12 234.786 107.561C236.629 105.827 238.432 104.134 240.092 102.458C241.624 100.958 243.036 99.3417 244.315 97.6228C244.442 97.4417 244.568 97.2606 244.671 97.0874L245.027 96.4967C245.398 95.8905 245.754 95.2763 246.134 94.6779C246.893 93.481 247.683 92.3024 248.506 91.1422C250.218 88.8091 252.109 86.611 254.16 84.5673C258.38 80.3047 263.399 76.9073 268.931 74.567C274.765 72.1088 281.127 71.1607 287.428 71.8109C293.924 72.5534 300.059 75.1792 305.07 79.3624C309.846 83.4065 313.57 88.5389 315.927 94.3234C318.131 99.7189 319.466 105.427 319.881 111.237C320.298 116.751 320.136 122.293 319.398 127.774C319.167 129.633 318.206 131.326 316.723 132.482C315.242 133.637 313.36 134.161 311.491 133.939C309.656 133.716 307.981 132.79 306.82 131.359C305.659 129.927 305.102 128.103 305.268 126.269L305.347 126.191Z" fill="black"/>
<path d="M294.457 144.302C298.735 136.002 307.165 127.245 315.602 124.616C332.13 119.466 350.46 139.829 325.393 187.609C288.084 258.667 251.677 227.689 269.247 191.145" fill="white"/>
<path d="M292.369 143.231C294.259 138.649 296.869 134.396 300.103 130.632C303.393 126.876 307.22 123.364 312.273 120.993C312.905 120.703 313.562 120.435 314.234 120.206C314.906 119.978 315.625 119.757 316.353 119.584C317.816 119.225 319.314 119.024 320.821 118.986C323.944 118.905 327.041 119.572 329.851 120.93C332.644 122.281 335.106 124.224 337.064 126.623C338.918 128.894 340.386 131.449 341.413 134.191C343.242 139.289 344.049 144.697 343.785 150.105C343.594 155.178 342.865 160.216 341.611 165.137C339.085 174.577 335.509 183.707 330.951 192.358C328.736 196.618 326.404 200.838 323.786 204.956C321.178 209.126 318.299 213.121 315.167 216.918C311.946 220.864 308.335 224.478 304.389 227.706C300.145 231.24 295.271 233.946 290.02 235.682C287.078 236.623 283.992 237.047 280.903 236.934C277.581 236.812 274.333 235.925 271.414 234.343C269.959 233.553 268.607 232.587 267.389 231.469C266.205 230.394 265.144 229.193 264.225 227.886C263.344 226.65 262.583 225.332 261.956 223.949C261.624 223.272 261.379 222.587 261.109 221.902C260.841 221.217 260.643 220.516 260.478 219.823C259.762 217.133 259.44 214.353 259.52 211.571C259.581 208.912 259.953 206.27 260.628 203.697C261.912 198.791 264.218 194.209 267.397 190.248C267.576 190.026 267.798 189.842 268.049 189.706C268.3 189.57 268.575 189.485 268.86 189.454C269.144 189.424 269.431 189.45 269.705 189.531C269.979 189.612 270.234 189.746 270.456 189.925C270.771 190.169 271.01 190.494 271.149 190.865C271.289 191.236 271.323 191.638 271.247 192.027V192.075C270.322 196.332 269.793 200.665 269.666 205.019C269.543 208.891 270.144 212.752 271.438 216.406C272.006 217.952 272.832 219.393 273.881 220.666C274.345 221.223 274.877 221.724 275.462 222.154C275.989 222.567 276.572 222.903 277.194 223.154C278.443 223.673 279.798 223.894 281.148 223.8C282.713 223.69 284.252 223.343 285.711 222.769C287.398 222.106 289.01 221.267 290.518 220.264C292.171 219.197 293.74 218.005 295.208 216.697C296.727 215.359 298.229 213.941 299.668 212.422C301.107 210.902 302.491 209.272 303.851 207.634C309.323 200.749 314.189 193.406 318.393 185.689C322.798 178.107 326.354 170.066 328.998 161.712C330.26 157.716 331.111 153.602 331.536 149.436C331.967 145.585 331.673 141.689 330.666 137.947C329.662 134.482 327.764 131.647 325.131 130.128C323.793 129.35 322.295 128.886 320.75 128.774C319.932 128.709 319.11 128.736 318.299 128.852C317.879 128.907 317.46 128.994 317.041 129.088C316.622 129.183 316.163 129.309 315.721 129.443C311.855 130.824 308.295 132.943 305.242 135.679C303.593 137.089 302.042 138.609 300.601 140.231C299.135 141.853 297.792 143.582 296.584 145.404C296.241 145.922 295.707 146.285 295.098 146.415C294.488 146.545 293.851 146.431 293.326 146.097C292.855 145.805 292.502 145.359 292.327 144.836C292.153 144.312 292.167 143.744 292.369 143.231Z" fill="black"/>
<path d="M273.462 180.058C273.429 179.065 273.488 178.071 273.636 177.089C273.774 176.142 273.98 175.204 274.252 174.286C274.51 173.355 274.851 172.448 275.273 171.578C275.695 170.696 276.226 169.871 276.854 169.12C277.379 168.512 278.125 168.135 278.928 168.073C279.732 168.011 280.527 168.269 281.14 168.79C281.584 169.169 281.909 169.668 282.077 170.227C282.243 170.786 282.245 171.38 282.081 171.94L282.026 172.137C281.776 172.898 281.475 173.643 281.124 174.365C280.776 175.081 280.42 175.806 280.033 176.523L278.902 178.711C278.522 179.428 278.112 180.223 277.724 180.869L277.558 181.137C277.405 181.382 277.206 181.595 276.97 181.763C276.735 181.93 276.468 182.051 276.186 182.115C275.904 182.181 275.611 182.19 275.326 182.142C275.04 182.094 274.766 181.991 274.522 181.838C274.213 181.649 273.956 181.387 273.771 181.078C273.587 180.768 273.481 180.418 273.462 180.058Z" fill="black"/>
<path d="M207.829 255.777C227.384 228.666 229.259 222.886 198.672 202.365C168.085 181.845 156.958 182.459 144.203 205.24C133.646 224.091 93.0008 278.471 61.7259 319.212C45.6811 340.118 84.5477 360.858 109.243 351.496C139.285 340.086 161.608 319.834 207.829 255.777Z" fill="#D0D2D3"/>
<path d="M92.7469 364.253H92.3281C80.5534 364.158 70.4628 360.071 63.9076 352.741C52.8368 340.355 53.6908 321.496 66.0824 304.707C70.9379 298.133 76.3624 291.321 82.0481 284.085C99.5159 262.037 119.309 236.973 137.908 201.925C142.313 193.626 148.749 183.759 159.504 181.074C171.698 178.027 185.599 185.011 202.649 196.492C218.313 207.004 227.162 214.603 228.949 224.627C230.832 235.091 224.411 244.934 213.609 259.911C209.328 265.849 205.322 271.431 201.589 276.659C173.343 316.125 157.788 337.866 132.728 352.087C118.724 360.048 104.886 364.253 92.7469 364.253ZM165.498 194.531C164.656 194.524 163.818 194.619 162.999 194.814C160.438 195.46 156.349 197.578 150.521 208.547C131.321 244.729 110.192 271.415 93.2612 292.857C87.6228 299.943 82.3012 306.716 77.5877 313.102C69.2057 324.449 68.0514 336.023 74.5755 343.316C81.542 351.111 99.0889 354.867 125.706 339.772C148.046 327.094 162.082 307.487 190.028 268.439C193.787 263.189 197.804 257.591 202.079 251.643C210.184 240.406 215.862 232.067 214.969 227.13C214.012 221.831 204.689 214.925 194.725 208.232C180.736 198.885 171.516 194.531 165.466 194.531H165.498Z" fill="black"/>
<path d="M191.016 234.635L188.359 232.816C187.426 232.194 186.485 231.595 185.544 231.004C183.646 229.831 181.725 228.737 179.771 227.745C178.806 227.233 177.818 226.776 176.829 226.335C175.841 225.894 174.956 225.548 174.101 225.209C172.807 224.689 171.398 224.509 170.013 224.689C169.522 224.779 169.052 224.961 168.629 225.225C168.051 225.587 167.52 226.018 167.048 226.508C165.724 227.954 164.563 229.538 163.584 231.233L159.978 237.383L158.12 240.533L156.183 243.682L154.214 246.832L152.181 249.903L150.149 252.966L148.046 255.99C145.23 260.013 142.257 263.927 139.229 267.801C136.2 271.676 132.989 275.4 129.644 279.03L127.122 281.738L124.52 284.384C123.634 285.25 122.765 286.133 121.847 286.975C120.93 287.818 120.029 288.653 119.001 289.55C118.188 290.261 117.125 290.621 116.045 290.551C114.966 290.482 113.958 289.989 113.243 289.18C112.583 288.437 112.219 287.479 112.219 286.487C112.219 285.494 112.583 284.537 113.243 283.794L113.362 283.66C114.058 282.872 114.864 281.975 115.6 281.085L117.854 278.384C119.349 276.565 120.811 274.715 122.266 272.872C125.155 269.124 127.968 265.324 130.704 261.471C133.416 257.588 136.113 253.707 138.659 249.714L140.604 246.738L142.486 243.729L144.361 240.721L146.171 237.667L148.006 234.627L149.777 231.548L151.549 228.469C152.134 227.445 152.766 226.304 153.438 225.201C154.872 222.718 156.583 220.404 158.539 218.303C159.738 217.054 161.103 215.973 162.596 215.091C164.253 214.115 166.075 213.451 167.973 213.13C169.785 212.839 171.633 212.839 173.445 213.13C175.042 213.391 176.607 213.824 178.111 214.422C179.443 214.947 180.735 215.567 181.978 216.28C182.562 216.595 183.14 216.933 183.701 217.28C184.263 217.627 184.833 217.981 185.386 218.351C187.576 219.813 189.651 221.44 191.593 223.218C192.55 224.115 193.491 225.02 194.377 225.996C194.82 226.485 195.255 226.973 195.682 227.485C196.109 227.997 196.473 228.485 196.979 229.147C197.617 230.021 197.882 231.112 197.715 232.181C197.547 233.249 196.961 234.209 196.085 234.848C195.399 235.347 194.574 235.622 193.724 235.635C192.874 235.648 192.041 235.397 191.34 234.918L191.016 234.635Z" fill="black"/>
<path d="M174.079 174.16C176.546 180.909 180.571 184.09 180.571 184.09L184.295 178.877L176.712 174.153L174.079 174.16Z" fill="white"/>
<path d="M281.441 207.453C282.118 201.387 283.421 195.408 285.331 189.61C287.199 183.795 289.531 178.139 292.306 172.695C293.704 169.961 295.229 167.291 296.885 164.687C298.556 162.078 300.369 159.562 302.318 157.152C304.294 154.728 306.439 152.447 308.739 150.325C311.058 148.196 313.591 146.312 316.299 144.703C316.572 144.543 316.875 144.438 317.19 144.395C317.504 144.352 317.824 144.371 318.131 144.452C318.439 144.532 318.727 144.672 318.98 144.864C319.233 145.056 319.444 145.295 319.604 145.569C319.845 145.981 319.958 146.456 319.928 146.932C319.899 147.409 319.728 147.866 319.438 148.245L319.39 148.301C317.611 150.616 315.871 152.868 314.202 155.191C312.535 157.514 310.969 159.916 309.411 162.278C306.343 167.089 303.448 172.034 300.649 177.09C297.85 182.144 295.184 187.325 292.552 192.53C289.918 197.735 287.277 203.05 284.501 208.279V208.326C284.406 208.517 284.273 208.686 284.111 208.824C283.949 208.962 283.759 209.066 283.555 209.13C283.352 209.192 283.137 209.214 282.924 209.192C282.712 209.171 282.506 209.107 282.319 209.004C282.033 208.863 281.795 208.641 281.638 208.363C281.482 208.086 281.413 207.769 281.441 207.453Z" fill="black"/>
</g>
<defs>
<filter id="filter0_df_2432_1954" x="55.66" y="27.02" width="288.674" height="337.733" filterUnits="userSpaceOnUse" color-interpolation-filters="sRGB">
<feFlood flood-opacity="0" result="BackgroundImageFix"/>
<feColorMatrix in="SourceAlpha" type="matrix" values="0 0 0 0 0 0 0 0 0 0 0 0 0 0 0 0 0 0 127 0" result="hardAlpha"/>
<feOffset dx="0.5"/>
<feColorMatrix type="matrix" values="0 0 0 0 0 0 0 0 0 0 0 0 0 0 0 0 0 0 1 0"/>
<feBlend mode="normal" in2="BackgroundImageFix" result="effect1_dropShadow_2432_1954"/>
<feBlend mode="normal" in="SourceGraphic" in2="effect1_dropShadow_2432_1954" result="shape"/>
<feGaussianBlur stdDeviation="0.25" result="effect2_foregroundBlur_2432_1954"/>
</filter>
</defs>
</svg>
