<?xml version="1.0" encoding="UTF-8"?>
<svg id="Layer_1" data-name="Layer 1" xmlns="http://www.w3.org/2000/svg" viewBox="0 0 154.019 208.995">
  <path fill="#FFF" d="m154.019.047v153.934c-.792.687-1.745.377-2.613.38-7.232.028-14.466.083-21.696-.029-1.883-.029-2.966.513-3.974,2.157-7.729,12.609-15.564,25.153-23.375,37.712-12.261,19.715-38.599,19.729-50.878.018-7.82-12.553-15.646-25.103-23.374-37.713-1.006-1.641-2.075-2.199-3.965-2.173-7.973.109-15.949.046-24.145.046V.047c1.2,0,2.343,0,3.486,0,7.814,0,15.629.06,23.442-.046,1.736-.024,2.644.586,3.522,2.011,8.064,13.085,16.205,26.123,24.317,39.179,10.858,17.475,33.363,17.531,44.26.082,8.186-13.108,16.345-26.232,24.443-39.394.853-1.386,1.733-1.888,3.356-1.873,8.969.085,17.94.041,27.193.041ZM3.956,4.054v146.312c1.047,0,1.944,0,2.841,0,6.484,0,12.97.069,19.452-.042,1.947-.033,3.112.515,4.172,2.246,8.117,13.248,16.346,26.427,24.551,39.621,10.58,17.013,33.258,17.023,43.874.009,8.269-13.253,16.535-26.507,24.714-39.815.96-1.562,1.978-2.089,3.767-2.061,6.649.106,13.301.053,19.951.027.877-.003,1.818.271,2.622-.303V4.05c-7.068,0-13.959.065-20.847-.047-1.658-.027-2.511.568-3.337,1.908-7.717,12.519-15.488,25.005-23.259,37.49-12.445,19.993-38.695,19.934-51.135-.103-7.757-12.495-15.525-24.982-23.29-37.473-.559-.899-.955-1.819-2.375-1.805-7.14.074-14.281.034-21.7.034Z"/>
</svg>