<svg width="122" height="100" viewBox="0 0 122 100" fill="none" xmlns="http://www.w3.org/2000/svg">
<g style="mix-blend-mode:screen" filter="url(#filter0_d_308_45)">
<path d="M110.953 50.2199C122.576 38.7855 124.011 20.5637 112.388 9.16833C100.766 -2.26622 82.0235 -3.47596 68.1414 8.21036C66.3076 9.73954 61.8266 13.9627 60.2057 15.6506C42.4062 36.1019 46.0591 64.547 60.2057 98.3944L110.953 50.2199Z" fill="#FF0000"/>
<path d="M9.46794 50.2199C-2.15466 38.7855 -3.59031 20.5637 8.03231 9.16833C19.6549 -2.26622 38.3974 -3.47596 52.2797 8.21036C54.113 9.73954 58.5945 13.9627 60.2149 15.6506C78.0146 36.1019 74.3619 64.547 60.2149 98.3944L9.46794 50.2199Z" fill="#FF0000"/>
</g>
<defs>
<filter id="filter0_d_308_45" x="0" y="0" width="121.921" height="99.8943" filterUnits="userSpaceOnUse" color-interpolation-filters="sRGB">
<feFlood flood-opacity="0" result="BackgroundImageFix"/>
<feColorMatrix in="SourceAlpha" type="matrix" values="0 0 0 0 0 0 0 0 0 0 0 0 0 0 0 0 0 0 127 0" result="hardAlpha"/>
<feOffset dx="1.5" dy="1.5"/>
<feComposite in2="hardAlpha" operator="out"/>
<feColorMatrix type="matrix" values="0 0 0 0 0.0666667 0 0 0 0 0.0666667 0 0 0 0 0.0666667 0 0 0 1 0"/>
<feBlend mode="normal" in2="BackgroundImageFix" result="effect1_dropShadow_308_45"/>
<feBlend mode="normal" in="SourceGraphic" in2="effect1_dropShadow_308_45" result="shape"/>
</filter>
</defs>
</svg>
