<?xml version="1.0" encoding="UTF-8"?>
<svg id="Layer_1" data-name="Layer 1" xmlns="http://www.w3.org/2000/svg" viewBox="0 0 668.02 412.42">
  <defs>
    <style>
      .cls-1 {
        fill: #faeec1;
      }

      .cls-2 {
        fill: #fcf7e7;
      }

      .cls-3 {
        fill: #f9efc4;
      }

      .cls-4 {
        fill: #fbf5e5;
      }

      .cls-5 {
        fill: #e99a3b;
      }

      .cls-6 {
        fill: #e99b3c;
      }

      .cls-7 {
        fill: #995d38;
      }

      .cls-8 {
        fill: #fcf8e9;
      }

      .cls-9 {
        fill: #e89c3d;
      }
    </style>
  </defs>
  <path class="cls-7" d="M667.91,278.21c-1.27-22.64-13.46-30.1-26.47-45.98-44.25-53.99-86.37-112.99-128.13-169.13-11.03-14.83-26.77-41.36-41.7-50.73-30.56-19.17-77.09-13.45-109.07-.52-8.67,3.51-17.49,8.04-25.33,13.14-4.24,2.75-7.96,6.16-12.35,8.69-1.38.12-5.81-4.18-7.25-5.22C288.46,7.43,249.02-7.12,213.24,3.96c-25.95,8.04-33.48,25.14-48.28,45.15-31.67,42.82-63.6,85.57-95.93,127.89-14.79,19.36-29.67,39.51-45.19,58.23-10.2,12.3-21.7,20.74-23.42,38.03-3.37,33.91,13.92,53.29,36.17,75.15,19.2,18.87,56.16,52.15,83.01,55.87,10.68,1.48,21.27,3.48,31.97,5,24.66,3.52,25.95-5.22,40.41-20.94,43.8-47.61,88.82-94.45,134.18-140.61,1.65-1.68,10.27-11.77,11.73-11.77,6.28,5.54,12.21,11.86,17.99,17.99,38.89,41.24,77.09,84.69,114.42,127.39,14.39,16.45,20.74,32.81,45.9,30.92,37.09-2.79,68.56-26.91,95.96-49.68,26.78-22.26,57.94-45.34,55.75-84.38ZM95.67,377.79c-16.45-11.5-32.1-24.5-46.6-38.38-19.29-18.47-37.29-36.18-33.59-65.58,1.35-10.7,15.73-24.44,22.56-33.39,41.79-54.8,79.28-112.99,124.95-164.82.82-.93,2.31-2.77,3.17-3.42.18-.13-.04-.95,1.08-.56l1.04,12.2c8.31,49.62,42.51,82.51,82.94,108.41,3.56,2.28,8.74,4.58,11.93,7.06.48.37,1.03.67.94,1.38-7.18,16.7-14.96,33.27-23.82,49.14-18.62,33.36-41.01,57.3-69.03,82.85-21.77,19.85-42.32,37.12-71.6,43.82-1.34.31-2.45,1.79-3.99,1.31ZM323.84,228.51c-15.67,12.31-30.37,26.03-44.48,40.13-39.45,39.4-75.7,82.05-111.49,124.68-2.58,2.1-5.64,2.28-8.84,2.02-8.51-.68-17.96-3.64-26.54-4.94-2.66-.4-15.16-1.02-16.19-2.06-.23-1.39.23-.75.75-.99,28.96-13.12,49.11-29.23,71.96-50.95,14.8-14.07,33.3-31.68,44.11-48.82,16.09-25.52,26.39-55.32,38.14-83l52.89,22.91-.31,1.01ZM341.22,216.34c-1.75.46-2.51.61-4.27.14-8.68-2.29-24.69-11.76-33.04-16.45-38.68-21.73-102.86-65.33-112.55-111.28-6.76-32.04,14.85-65.44,48.58-66.6,34.97-1.2,65.24,10.56,88.47,36.49,2.07,2.31,5.37,8.38,8.51,8.97,6.12,1.15,10.29-3.06,9.19-9.19-.59-3.27-7.63-9.75-9.73-12.78-.36-.51-.31-.97-.01-1.5.8-1.44,12.13-8.04,14.33-9.17,20.21-10.33,62-18.95,84.01-14.19,20.13,4.36,41.31,20.92,43.34,42.59,2.94,31.44-18.31,63.53-38.19,85.97-21.4,24.17-50.4,45.28-79.64,59-5.29,2.48-13.57,6.55-19,7.98ZM607.96,346.64c-.27.66-9.33,8.07-10.75,9.23-24.3,19.88-47.24,36.01-79.05,41.36-4.39.74-11.83,1.58-15.9-.35-3.38-1.6-3.96-7.18-5.52-10.47-4.2-8.85-13.41-19.91-19.71-27.63-24.39-29.89-52.49-57.05-78.89-85.1l-44.5-43.94.86-1.13c9.23-2.67,18-6.64,26.5-11.02,1.26-.23,3.78,2.23,4.9,3.12,30.62,24.42,60.09,54.31,93.89,74.23,34.44,20.3,80.09,40.45,119.05,49.33,2.5.57,5.5.77,8.03,1.48.53.15,1.46-.03,1.08.89ZM641.42,315.16c-1.01,1.28-2.54,2.76-3.7,4.06-3.06,3.42-11.05,11.73-14.52,14.19-.89.63-1.24.97-2.43.96-2.78,0-9.38-1.45-12.44-2.08-46.18-9.54-105.35-43.13-145.34-68.51-19.53-12.39-48.89-31.43-64.38-48.02-.91-.97-4.63-5.01-3.95-6.17,11.38-6.51,22.31-14.47,32.64-22.58,28.4-22.29,54.37-46.79,66.56-81.83,3.74-10.74,6.39-22.69,6.17-34.05.83-.19,1.01.27,1.49.76,4.99,5.15,10.34,12.31,14.99,17.99,23.38,28.56,45.63,58.24,67.17,88.2,15.49,21.54,30.29,45.6,46.77,66.14,5.75,7.17,10.56,10.62,16.98,16.49,13.23,12.1,3.57,42.26-6.02,54.44Z"/>
  <path class="cls-8" d="M240.29,249.82c8.86-15.87,16.63-32.44,23.82-49.14.09-.71-.47-1.01-.94-1.38-3.18-2.48-8.36-4.78-11.93-7.06-40.43-25.9-74.63-58.79-82.94-108.41l-1.04-12.2c-1.12-.39-.91.43-1.08.56-.86.65-2.35,2.49-3.17,3.42-45.67,51.83-83.15,110.02-124.95,164.82-6.83,8.96-21.22,22.69-22.56,33.39-3.7,29.4,14.3,47.11,33.59,65.58,14.49,13.88,30.15,26.88,46.6,38.38,1.54.47,2.65-1.01,3.99-1.31,29.28-6.7,49.83-23.97,71.6-43.82,28.03-25.55,50.41-49.49,69.03-82.85Z"/>
  <path class="cls-8" d="M630.46,244.23c-16.48-20.54-31.29-44.6-46.77-66.14-21.54-29.96-43.8-59.65-67.17-88.2-4.65-5.68-9.99-12.84-14.99-17.99-.47-.49-.65-.95-1.49-.76.22,11.36-2.43,23.31-6.17,34.05-12.19,35.03-38.16,59.53-66.56,81.83-10.33,8.11-21.26,16.06-32.64,22.58-.68,1.16,3.04,5.2,3.95,6.17,15.48,16.58,44.84,35.62,64.38,48.02,39.99,25.38,99.16,58.96,145.34,68.51,3.06.63,9.65,2.08,12.44,2.08,1.19,0,1.54-.34,2.43-.96,3.47-2.46,11.46-10.77,14.52-14.19,1.16-1.3,2.7-2.78,3.7-4.06,9.59-12.18,19.25-42.34,6.02-54.44-6.42-5.87-11.23-9.32-16.98-16.49Z"/>
  <path class="cls-3" d="M439.86,149.36c19.88-22.44,41.13-54.53,38.19-85.97-2.03-21.67-23.21-38.24-43.34-42.59-22.01-4.76-63.8,3.86-84.01,14.19-2.2,1.12-13.54,7.72-14.33,9.17-.29.53-.35.98.01,1.5,2.1,3.03,9.14,9.51,9.73,12.78,1.1,6.13-3.07,10.33-9.19,9.19-3.14-.59-6.44-6.66-8.51-8.97-23.23-25.93-53.5-37.69-88.47-36.49-33.73,1.16-55.34,34.56-48.58,66.6,9.7,45.95,73.88,89.55,112.55,111.28,8.35,4.69,24.35,14.16,33.04,16.45,1.77.47,2.52.32,4.27-.14,5.43-1.43,13.71-5.5,19-7.98,29.24-13.72,58.24-34.84,79.64-59ZM392.61,60.65h17.49l-1.75,51.95h-14.99c-1.27,0-2.13-1.07-2.28-2.22-.93-7.35.84-16.04,1.05-23.49.24-8.75-.47-17.54.48-26.25ZM399.47,114.71c8.82-.73,15.62,9.31,10.35,16.84-4.61,6.59-13.52,7.02-18.2.28-4.38-6.33-.07-16.46,7.85-17.12ZM305.99,145.4c-14.09,15.91-35.78,15.42-47.3-3.07-13.14-21.09-12.44-58.86,9.84-73.6,13.72-9.08,28.52-3.92,37.55,8.74,13.11,18.38,15.49,50.34-.09,67.93ZM358.69,170.73l1.97-29.36c-.23-1.31-19.12-.87-21.44-.22l-2.55,29.19-15.25-.8c-2.55-.48-1.86-5.07-1.78-7.25.18-4.99,2.22-17.36.97-21.32-1.81-5.71-1.05-5.31-.9-11.14.07-2.98-2.16-5.95,2.23-7.22.87-8.85,1.72-17.85,2.22-26.75.26-4.59-.56-9.28.73-13.75,1.08-1.54,13.45.47,16.01.02l1.18.82c-.01,4.12.27,8.3.06,12.41-.36,7.19-1.74,15.29-2.01,22.46-.06,1.64-.4,4.14.77,5.27h20.49c.88-.25,1.58-2.39,1.7-3.29,1.27-9.1,1.23-19.17,2.05-28.42.17-1.92.82-4.08.99-6.01.19-2.2-.54-7.73.75-9.24,1.28-1.51,14.03,1.29,16.78.72l.47,1.03-7.99,94.67c-5.6.24-11.13-.23-16.66-1.09l-.77-.74Z"/>
  <path class="cls-2" d="M606.87,345.75c-2.53-.7-5.54-.91-8.03-1.48-38.96-8.88-84.61-29.03-119.05-49.33-33.8-19.92-63.28-49.81-93.89-74.23-1.12-.89-3.64-3.36-4.9-3.12-8.5,4.38-17.28,8.35-26.5,11.02l-.86,1.13,44.5,43.94c26.39,28.04,54.49,55.2,78.89,85.1,6.3,7.72,15.51,18.79,19.71,27.63,1.56,3.29,2.14,8.86,5.52,10.47,4.08,1.93,11.52,1.09,15.9.35,31.81-5.36,54.75-21.49,79.05-41.36,1.42-1.16,10.49-8.58,10.75-9.23.38-.92-.56-.74-1.08-.89ZM399.34,254.98c-.61.06-5.01-1.34-5.18-1.55-1.2-1.44,1.53-2.71,2.2-3.43.83-.88,1.85-2.37,2.51-2.99.43-.4.58-.92,1.24-.29,2.8,1.81,2.73,7.89-.77,8.26ZM468.8,309.42c-5.25.37-10.48-1.22-15.73-.99-.78-.6-.01-.91.74-1,2.38-.28,5.54-.07,7.89-.61,2.27-.52,4.44-2.11,7.1-2.39,1.35-.14,7.91.53,8.25,1.76.68,2.47-6.46,3.1-8.25,3.23ZM503.48,338.1c-1.06.87-2.24,1.11-3.19,1.81-1.72,1.27-2.29,3.53-4.99,3.01-1.52-.29-4.79-5.79-5.11-7.4-.3-1.48-.4-6.41-.13-7.84.23-1.21,4.03-4.45,5.11-4.88.94-.38,3.17-.66,4.21-.68,3.5-.07,11.07,2.04,10.66,6.5-.21,2.28-4.71,7.99-6.55,9.49ZM532.46,379.57c-.93.92-4.47,2.33-5.69,3.3-1.2.95-4.54,5.2-4.85,5.38-.61.35-4.09.21-4.88-.15-2.08-.94-8.83-8.78-6.77-11.75,2.64-1.12,5.59-1.69,7.78-3.71.39-.35,3.58-4.03,3.71-4.29.73-1.5.63-4.31,2.58-5.43,3.69,1.14,4.39,2.44,6.36,5.29.19.27.84.4,1.2,1.02,1.7,2.97,3.36,7.59.58,10.34ZM554.52,353.63c-.37-.17-3.11-2.01-3.26-2.25-.96-1.61-1.29-5.29,1.1-5.9.81-.21,6.37.34,6.57,1.78-.56,2.17-1.01,7.93-4.41,6.38Z"/>
  <path class="cls-4" d="M233.12,287.6c-10.81,17.14-29.31,34.75-44.11,48.82-22.85,21.71-43,37.82-71.96,50.95-.52.24-.99-.4-.75.99,1.03,1.04,13.52,1.65,16.19,2.06,8.58,1.29,18.03,4.25,26.54,4.94,3.2.26,6.26.08,8.84-2.02,35.79-42.63,72.04-85.28,111.49-124.68,14.11-14.09,28.81-27.81,44.48-40.13l.31-1.01-52.89-22.91c-11.76,27.68-22.05,57.48-38.14,83ZM293.8,222.39c.94-.24,1.98-1.54,3.24-1.78,2.47-.48,4.19,1.97,4.59,4.18.73,4.07-3.6,7.8-7.61,6.61-.43-.13-4.42-4-4.59-4.4-2.11-4.92,2.05-4.01,4.37-4.61ZM279.69,232.76c.77-.89,5.52-6.12,6.48-5.25.27.24-3.24,4.8-3.68,5.56-2.57,4.5-4.15,12.91-10.83,12.19l-.22-1.75c3.1-3.21,5.41-7.44,8.25-10.75Z"/>
  <path class="cls-5" d="M376.12,172.55l7.99-94.67-.47-1.03c-2.74.57-15.49-2.23-16.78-.72-1.29,1.51-.56,7.04-.75,9.24-.17,1.92-.82,4.08-.99,6.01-.82,9.25-.78,19.32-2.05,28.42-.13.9-.82,3.04-1.7,3.29h-20.49c-1.17-1.13-.83-3.63-.77-5.27.28-7.17,1.65-15.27,2.01-22.46.21-4.11-.08-8.3-.06-12.41l-1.18-.82c-2.56.45-14.93-1.56-16.01-.02-1.29,4.48-.48,9.17-.73,13.75-.5,8.9-1.35,17.91-2.22,26.75-4.39,1.27-2.15,4.24-2.23,7.22-.14,5.82-.91,5.43.9,11.14,1.25,3.96-.79,16.32-.97,21.32-.08,2.18-.76,6.77,1.78,7.25l15.25.8,2.55-29.19c2.33-.65,21.22-1.09,21.44.22l-1.97,29.36.77.74c5.52.86,11.05,1.33,16.66,1.09Z"/>
  <path class="cls-5" d="M268.53,68.73c-22.28,14.74-22.97,52.51-9.84,73.6,11.51,18.49,33.2,18.97,47.3,3.07,15.59-17.59,13.2-49.55.09-67.93-9.03-12.66-23.84-17.82-37.55-8.74ZM287.28,138.43c-5.2,2.37-8.74,1.35-12.35-2.85-9.69-11.25-10.46-36.17-1.66-48.13,4.36-5.93,10.94-8.38,16.73-2.66,11.78,11.65,14.76,45.65-2.72,53.63Z"/>
  <path class="cls-6" d="M391.08,110.38c.15,1.15,1,2.22,2.28,2.22h14.99l1.75-51.95h-17.49c-.95,8.71-.24,17.5-.48,26.25-.21,7.45-1.98,16.14-1.05,23.49Z"/>
  <path class="cls-9" d="M409.81,131.55c5.27-7.54-1.53-17.57-10.35-16.84-7.93.66-12.24,10.8-7.85,17.12,4.68,6.75,13.59,6.31,18.2-.28Z"/>
  <path class="cls-8" d="M530.69,368.21c-1.98-2.85-2.67-4.15-6.36-5.29-1.96,1.12-1.85,3.94-2.58,5.43-.12.25-3.32,3.93-3.71,4.29-2.19,2.02-5.14,2.59-7.78,3.71-2.05,2.97,4.69,10.81,6.77,11.75.79.36,4.27.5,4.88.15.31-.18,3.65-4.43,4.85-5.38,1.23-.97,4.76-2.38,5.69-3.3,2.79-2.74,1.12-7.37-.58-10.34-.36-.62-1.01-.75-1.2-1.02Z"/>
  <path class="cls-8" d="M499.37,322.11c-1.04.02-3.27.31-4.21.68-1.08.43-4.88,3.67-5.11,4.88-.27,1.43-.17,6.36.13,7.84.33,1.61,3.59,7.11,5.11,7.4,2.7.51,3.28-1.75,4.99-3.01.94-.7,2.13-.94,3.19-1.81,1.84-1.5,6.34-7.21,6.55-9.49.41-4.45-7.16-6.56-10.66-6.5Z"/>
  <path class="cls-8" d="M468.8,304.43c-2.66.27-4.83,1.86-7.1,2.39-2.36.54-5.52.33-7.89.61-.75.09-1.52.4-.74,1,5.25-.23,10.48,1.37,15.73.99,1.79-.13,8.93-.76,8.25-3.23-.34-1.23-6.89-1.9-8.25-1.76Z"/>
  <path class="cls-8" d="M552.36,345.47c-2.39.61-2.06,4.29-1.1,5.9.15.25,2.89,2.08,3.26,2.25,3.4,1.56,3.85-4.2,4.41-6.38-.19-1.45-5.76-1.99-6.57-1.78Z"/>
  <path class="cls-8" d="M400.12,246.71c-.66-.63-.81-.11-1.24.29-.66.61-1.68,2.11-2.51,2.99-.67.72-3.4,1.99-2.2,3.43.17.21,4.57,1.62,5.18,1.55,3.5-.37,3.57-6.45.77-8.26Z"/>
  <path class="cls-8" d="M294.02,231.39c4.01,1.19,8.34-2.54,7.61-6.61-.4-2.21-2.12-4.66-4.59-4.18-1.26.25-2.3,1.55-3.24,1.78-2.32.59-6.48-.32-4.37,4.61.17.4,4.16,4.27,4.59,4.4Z"/>
  <path class="cls-8" d="M282.5,233.06c.43-.76,3.95-5.32,3.68-5.56-.96-.87-5.72,4.36-6.48,5.25-2.83,3.3-5.14,7.53-8.25,10.75l.22,1.75c6.68.72,8.26-7.69,10.83-12.19Z"/>
  <path class="cls-1" d="M273.27,87.46c-8.81,11.96-8.03,36.88,1.66,48.13,3.62,4.2,7.16,5.22,12.35,2.85,17.47-7.98,14.49-41.98,2.72-53.63-5.78-5.72-12.36-3.27-16.73,2.66Z"/>
</svg>